<svg xmlns="http://www.w3.org/2000/svg" version="1.1" xmlns:xlink="http://www.w3.org/1999/xlink" xmlns:svgjs="http://svgjs.dev/svgjs" width="1500" height="515" viewBox="0 0 1500 515"><g transform="matrix(1,0,0,1,-0.9090909090909918,0.012964435837886867)"><svg viewBox="0 0 396 136" data-background-color="#0023ff" preserveAspectRatio="xMidYMid meet" height="515" width="1500" xmlns="http://www.w3.org/2000/svg" xmlns:xlink="http://www.w3.org/1999/xlink"><g id="tight-bounds" transform="matrix(1,0,0,1,0.2400000000000091,-0.0034236180076732126)"><svg viewBox="0 0 395.52 136.00684723601535" height="136.00684723601535" width="395.52"><g><svg viewBox="0 0 657.3445269480828 226.04004009420174" height="136.00684723601535" width="395.52"><g transform="matrix(1,0,0,1,261.82452694808285,54.32846166601243)"><svg viewBox="0 0 395.52 117.38311676217688" height="117.38311676217688" width="395.52"><g id="textblocktransform"><svg viewBox="0 0 395.52 117.38311676217688" height="117.38311676217688" width="395.52" id="textblock"><g><svg viewBox="0 0 395.52 75.79018378378379" height="75.79018378378379" width="395.52"><g transform="matrix(1,0,0,1,0,0)"><svg width="395.52" viewBox="3.95 -35.05 184.98000000000002 35.449999999999996" height="75.79018378378379" data-palette-color="url(#d5c9b54b-4bfb-4e13-8b66-7e435ea1a631)"></svg></g></svg></g><g transform="matrix(1,0,0,1,0,93.68242721072433)"><svg viewBox="0 0 232.209792 23.700689551452548" height="23.700689551452548" width="232.209792"><g transform="matrix(1,0,0,1,0,0)"><svg width="232.209792" viewBox="2.81 -38.09 378.13 38.6" height="23.700689551452548" data-palette-color="url(#d4022fa0-2ca5-4b2a-b880-a4344b2a9ecf)"></svg></g></svg></g></svg></g></svg></g><g><svg viewBox="0 0 226.04004009420174 226.04004009420174" height="226.04004009420174" width="226.04004009420174"><g><svg></svg></g><g id="icon-0"><svg viewBox="0 0 226.04004009420174 226.04004009420174" height="226.04004009420174" width="226.04004009420174"><g></g><g transform="matrix(1,0,0,1,48.800770925036005,55.849785205974975)"><svg viewBox="0 0 128.43849824412973 114.3404696822518" height="114.3404696822518" width="128.43849824412973"><g><svg version="1.1" xmlns="http://www.w3.org/2000/svg" xmlns:xlink="http://www.w3.org/1999/xlink" x="0" y="0" viewBox="0 0 100 89.02351806147632" enable-background="new 0 0 100 89.14" xml:space="preserve" id="dxe-0" width="128.43849824412973" height="114.3404696822518" class="icon-dxe-0" data-fill-palette-color="quaternary"><path fill="#0023ff" d="M43.198 52.033A22.4 22.4 0 0 1 56.926 52.078L56.863 19.608H68.627L50.98 0 31.373 19.608H43.138z" data-fill-palette-color="quaternary"></path><path fill="#0023ff" d="M72.274 21.568L80.687 29.791 58.446 52.637A22.65 22.65 0 0 1 69.015 61.46L90.505 39.384 98.919 47.607 100 21.568z" data-fill-palette-color="quaternary"></path><path fill="#0023ff" d="M41.553 52.637L19.312 29.791 27.726 21.568H0L1.082 47.606 9.496 39.383 30.986 61.46A22.64 22.64 0 0 1 41.553 52.637" data-fill-palette-color="quaternary"></path><circle fill="#0023ff" cx="50" cy="73.529" r="16" data-fill-palette-color="quaternary"></circle></svg></g></svg></g></svg></g></svg></g></svg></g><defs></defs><mask id="99b4e29a-c984-47ca-ba49-cfaa8ea96dd1"><g id="SvgjsG1839"><svg viewBox="0 0 395.52 136.00684723601535" height="136.00684723601535" width="395.52"><g><svg viewBox="0 0 657.3445269480828 226.04004009420174" height="136.00684723601535" width="395.52"><g transform="matrix(1,0,0,1,261.82452694808285,54.32846166601243)"><svg viewBox="0 0 395.52 117.38311676217688" height="117.38311676217688" width="395.52"><g id="SvgjsG1838"><svg viewBox="0 0 395.52 117.38311676217688" height="117.38311676217688" width="395.52" id="SvgjsSvg1837"><g><svg viewBox="0 0 395.52 75.79018378378379" height="75.79018378378379" width="395.52"><g transform="matrix(1,0,0,1,0,0)"><svg width="395.52" viewBox="3.95 -35.05 184.98000000000002 35.449999999999996" height="75.79018378378379" data-palette-color="url(#d5c9b54b-4bfb-4e13-8b66-7e435ea1a631)"><path d="M15.15-35.05Q19.15-35.05 21.63-32.38 24.1-29.7 24.1-25.3L24.1-25.3Q24.1-20.95 21.63-18.32 19.15-15.7 15.15-15.7L15.15-15.7 7.7-15.7Q7.5-15.7 7.5-15.5L7.5-15.5 7.5-0.5Q7.5 0 7 0L7 0 4.45 0Q3.95 0 3.95-0.5L3.95-0.5 3.95-34.55Q3.95-35.05 4.45-35.05L4.45-35.05 15.15-35.05ZM14.7-18.65Q17.35-18.65 18.95-20.45 20.55-22.25 20.55-25.25L20.55-25.25Q20.55-28.3 18.95-30.13 17.35-31.95 14.7-31.95L14.7-31.95 7.7-31.95Q7.5-31.95 7.5-31.75L7.5-31.75 7.5-18.85Q7.5-18.65 7.7-18.65L7.7-18.65 14.7-18.65ZM36.05 0.4Q31.6 0.4 28.92-2.2 26.25-4.8 26.25-9.05L26.25-9.05 26.25-13.05Q26.25-13.55 26.75-13.55L26.75-13.55 29.3-13.55Q29.8-13.55 29.8-13.05L29.8-13.05 29.8-9Q29.8-6.15 31.5-4.42 33.2-2.7 36.05-2.7L36.05-2.7Q38.85-2.7 40.6-4.45 42.35-6.2 42.35-9L42.35-9 42.35-34.5Q42.35-35 42.85-35L42.85-35 45.35-35Q45.85-35 45.85-34.5L45.85-34.5 45.85-9.05Q45.85-4.8 43.15-2.2 40.45 0.4 36.05 0.4L36.05 0.4ZM73.64-23Q73.64-22.5 73.14-22.5L73.14-22.5 68.39-22.5Q68.19-22.5 68.19-22.3L68.19-22.3 68.19-7.3Q68.19-4.95 69.12-4.03 70.04-3.1 72.09-3.1L72.09-3.1 72.94-3.1Q73.44-3.1 73.44-2.6L73.44-2.6 73.44-0.5Q73.44 0 72.94 0L72.94 0 71.39 0.05Q68.14 0.05 66.44-1.28 64.74-2.6 64.74-6.2L64.74-6.2 64.74-22.3Q64.74-22.5 64.54-22.5L64.54-22.5 62.04-22.5Q61.54-22.5 61.54-23L61.54-23 61.54-24.8Q61.54-25.3 62.04-25.3L62.04-25.3 64.54-25.3Q64.74-25.3 64.74-25.5L64.74-25.5 64.74-31.2Q64.74-31.7 65.24-31.7L65.24-31.7 67.69-31.7Q68.19-31.7 68.19-31.2L68.19-31.2 68.19-25.5Q68.19-25.3 68.39-25.3L68.39-25.3 73.14-25.3Q73.64-25.3 73.64-24.8L73.64-24.8 73.64-23ZM83.89 0Q83.44 0 83.34-0.45L83.34-0.45 77.19-24.75 77.14-24.95Q77.14-25.3 77.59-25.3L77.59-25.3 80.09-25.3Q80.54-25.3 80.64-24.85L80.64-24.85 85.14-5.65Q85.19-5.5 85.24-5.5 85.29-5.5 85.34-5.65L85.34-5.65 89.89-24.85Q89.99-25.3 90.44-25.3L90.44-25.3 92.74-25.3Q93.24-25.3 93.29-24.85L93.29-24.85 97.94-5.7Q97.99-5.55 98.04-5.55 98.09-5.55 98.14-5.7L98.14-5.7 102.69-24.85Q102.79-25.3 103.24-25.3L103.24-25.3 105.79-25.25Q106.04-25.25 106.17-25.1 106.29-24.95 106.19-24.7L106.19-24.7 99.94-0.45Q99.89 0 99.39 0L99.39 0 96.79 0Q96.34 0 96.24-0.45L96.24-0.45 91.69-18.95Q91.64-19.1 91.57-19.1 91.49-19.1 91.44-18.95L91.44-18.95 87.04-0.45Q86.94 0 86.49 0L86.49 0 83.89 0ZM119.09-2.7Q120.99-2.7 122.36-3.68 123.74-4.65 124.34-6.3L124.34-6.3Q124.49-6.75 124.94-6.65L124.94-6.65 127.24-6.2Q127.49-6.15 127.56-5.98 127.64-5.8 127.59-5.6L127.59-5.6Q126.74-2.8 124.49-1.2 122.24 0.4 119.04 0.4L119.04 0.4Q115.39 0.4 113.09-1.53 110.79-3.45 110.24-6.75L110.24-6.75Q110.04-8 109.99-9.7 109.94-11.4 109.94-12.53 109.94-13.65 109.94-14.1L109.94-14.1Q109.94-16.65 110.14-18.25L110.14-18.25Q110.54-21.6 112.91-23.65 115.29-25.7 118.89-25.7L118.89-25.7Q122.74-25.7 125.14-23.5 127.54-21.3 127.84-17.7L127.84-17.7Q127.99-16.05 127.99-11.65L127.99-11.65Q127.99-11.15 127.49-11.15L127.49-11.15 113.69-11.15Q113.49-11.15 113.49-10.95L113.49-10.95Q113.49-9.4 113.59-7.5L113.59-7.5Q113.84-5.35 115.31-4.03 116.79-2.7 119.09-2.7L119.09-2.7ZM118.94-22.6Q116.69-22.6 115.26-21.28 113.84-19.95 113.59-17.8L113.59-17.8Q113.49-15.7 113.49-14.3L113.49-14.3Q113.49-14.1 113.69-14.1L113.69-14.1 124.24-14.1Q124.44-14.1 124.44-14.3L124.44-14.3Q124.44-15.75 124.24-17.75L124.24-17.75Q123.99-19.9 122.56-21.25 121.14-22.6 118.94-22.6L118.94-22.6ZM142.59-2.7Q144.49-2.7 145.86-3.68 147.24-4.65 147.84-6.3L147.84-6.3Q147.99-6.75 148.44-6.65L148.44-6.65 150.74-6.2Q150.99-6.15 151.06-5.98 151.14-5.8 151.09-5.6L151.09-5.6Q150.24-2.8 147.99-1.2 145.74 0.4 142.54 0.4L142.54 0.4Q138.89 0.4 136.59-1.53 134.29-3.45 133.74-6.75L133.74-6.75Q133.54-8 133.49-9.7 133.44-11.4 133.44-12.53 133.44-13.65 133.44-14.1L133.44-14.1Q133.44-16.65 133.64-18.25L133.64-18.25Q134.04-21.6 136.41-23.65 138.79-25.7 142.39-25.7L142.39-25.7Q146.24-25.7 148.64-23.5 151.04-21.3 151.34-17.7L151.34-17.7Q151.49-16.05 151.49-11.65L151.49-11.65Q151.49-11.15 150.99-11.15L150.99-11.15 137.19-11.15Q136.99-11.15 136.99-10.95L136.99-10.95Q136.99-9.4 137.09-7.5L137.09-7.5Q137.34-5.35 138.81-4.03 140.29-2.7 142.59-2.7L142.59-2.7ZM142.44-22.6Q140.19-22.6 138.76-21.28 137.34-19.95 137.09-17.8L137.09-17.8Q136.99-15.7 136.99-14.3L136.99-14.3Q136.99-14.1 137.19-14.1L137.19-14.1 147.74-14.1Q147.94-14.1 147.94-14.3L147.94-14.3Q147.94-15.75 147.74-17.75L147.74-17.75Q147.49-19.9 146.06-21.25 144.64-22.6 142.44-22.6L142.44-22.6ZM167.43-23Q167.43-22.5 166.93-22.5L166.93-22.5 162.18-22.5Q161.98-22.5 161.98-22.3L161.98-22.3 161.98-7.3Q161.98-4.95 162.91-4.03 163.83-3.1 165.88-3.1L165.88-3.1 166.73-3.1Q167.23-3.1 167.23-2.6L167.23-2.6 167.23-0.5Q167.23 0 166.73 0L166.73 0 165.18 0.05Q161.93 0.05 160.23-1.28 158.53-2.6 158.53-6.2L158.53-6.2 158.53-22.3Q158.53-22.5 158.33-22.5L158.33-22.5 155.83-22.5Q155.33-22.5 155.33-23L155.33-23 155.33-24.8Q155.33-25.3 155.83-25.3L155.83-25.3 158.33-25.3Q158.53-25.3 158.53-25.5L158.53-25.5 158.53-31.2Q158.53-31.7 159.03-31.7L159.03-31.7 161.48-31.7Q161.98-31.7 161.98-31.2L161.98-31.2 161.98-25.5Q161.98-25.3 162.18-25.3L162.18-25.3 166.93-25.3Q167.43-25.3 167.43-24.8L167.43-24.8 167.43-23ZM180.48 0.25Q176.63 0.25 174.28-1.6 171.93-3.45 171.93-6.35L171.93-6.35 171.93-6.8Q171.93-7.3 172.43-7.3L172.43-7.3 174.88-7.3Q175.38-7.3 175.38-6.8L175.38-6.8 175.38-6.45Q175.38-4.85 176.81-3.68 178.23-2.5 180.48-2.5L180.48-2.5Q182.68-2.5 184.03-3.65 185.38-4.8 185.38-6.55L185.38-6.55Q185.38-7.8 184.63-8.65 183.88-9.5 182.78-10 181.68-10.5 179.73-11.15L179.73-11.15Q177.38-11.95 175.83-12.75 174.28-13.55 173.21-14.98 172.13-16.4 172.13-18.6L172.13-18.6Q172.13-21.8 174.38-23.68 176.63-25.55 180.33-25.55L180.33-25.55Q184.13-25.55 186.41-23.6 188.68-21.65 188.68-18.6L188.68-18.6 188.68-18.5Q188.68-18 188.18-18L188.18-18 185.88-18Q185.38-18 185.38-18.5L185.38-18.5 185.38-18.7Q185.38-20.4 184.01-21.53 182.63-22.65 180.33-22.65L180.33-22.65Q178.18-22.65 176.86-21.58 175.53-20.5 175.53-18.8L175.53-18.8Q175.53-17.05 176.86-16.15 178.18-15.25 181.03-14.25L181.03-14.25Q183.48-13.45 185.08-12.65 186.68-11.85 187.81-10.43 188.93-9 188.93-6.75L188.93-6.75Q188.93-3.55 186.63-1.65 184.33 0.25 180.48 0.25L180.48 0.25Z" opacity="1" transform="matrix(1,0,0,1,0,0)" fill="white" class="wordmark-text-0" id="SvgjsPath1836"></path></svg></g></svg></g><g transform="matrix(1,0,0,1,0,93.68242721072433)"><svg viewBox="0 0 232.209792 23.700689551452548" height="23.700689551452548" width="232.209792"><g transform="matrix(1,0,0,1,0,0)"><svg width="232.209792" viewBox="2.81 -38.09 378.13 38.6" height="23.700689551452548" data-palette-color="url(#d4022fa0-2ca5-4b2a-b880-a4344b2a9ecf)"><path d="M14.79 0.51L14.79 0.51Q11.55 0.51 8.54-0.44 5.54-1.39 2.81-3.37L2.81-3.37 2.81-10.96 6.54-10.96 7.35-5.37Q8.94-4.39 10.79-3.86 12.65-3.32 14.79-3.32L14.79-3.32Q17.26-3.32 18.95-4.08L18.95-4.08Q22.44-5.59 22.44-9.2L22.44-9.2Q22.44-10.82 21.66-12.08L21.66-12.08Q20.87-13.33 19.08-14.27 17.29-15.21 14.18-15.92L14.18-15.92Q10.62-16.75 8.01-18.21L8.01-18.21Q2.86-21.12 2.86-26.34L2.86-26.34Q2.86-29.15 4.35-31.32L4.35-31.32Q5.81-33.52 8.45-34.79 11.08-36.06 14.6-36.06L14.6-36.06Q18.33-36.06 21.2-34.92 24.07-33.79 25.93-32.18L25.93-32.18 25.93-25.07 22.19-25.07 21.39-30.15Q20.29-31.03 18.65-31.62 17.02-32.2 14.6-32.2L14.6-32.2Q12.6-32.2 10.99-31.49L10.99-31.49Q9.42-30.76 8.54-29.47 7.67-28.17 7.67-26.42L7.67-26.42Q7.67-24.88 8.47-23.73L8.47-23.73Q9.94-21.56 15.84-20.09L15.84-20.09Q27.25-17.26 27.25-9.25L27.25-9.25Q27.25-6.4 25.71-4.2L25.71-4.2Q24.17-1.98 21.37-0.73 18.58 0.51 14.79 0.51ZM39.43-19.51L39.43-19.51 39.43-3.76 43.41-3.08 43.41 0 30.64 0 30.64-3.08 34.62-3.76 34.62-34.3 30.64-34.99 30.64-38.09 39.43-38.09 39.43-22.9Q40.79-24.8 42.77-25.85 44.75-26.9 47.17-26.9L47.17-26.9Q51.41-26.9 53.76-24.37 56.1-21.83 56.1-16.55L56.1-16.55 56.1-3.76 60.08-3.08 60.08 0 47.31 0 47.31-3.08 51.29-3.76 51.29-16.6Q51.29-23 45.7-23L45.7-23Q43.72-23 42.1-22.06 40.48-21.12 39.43-19.51ZM71.89 0.51L71.89 0.51Q67.77 0.51 65.62-1.5 63.47-3.52 63.47-7.18L63.47-7.18Q63.47-9.72 64.86-11.57L64.86-11.57Q66.23-13.45 68.84-14.48 71.45-15.5 75.09-15.5L75.09-15.5 79.8-15.5 79.8-18.09Q79.8-20.48 78.35-21.8 76.9-23.12 74.26-23.12L74.26-23.12Q72.6-23.12 71.38-22.72 70.16-22.31 69.16-21.61L69.16-21.61 68.65-17.92 64.94-17.92 64.94-23.97Q68.53-26.9 74.34-26.9L74.34-26.9Q79.15-26.9 81.88-24.61 84.61-22.31 84.61-18.04L84.61-18.04 84.61-5.32Q84.61-4.81 84.63-4.32 84.64-3.83 84.69-3.34L84.69-3.34 87.25-3.08 87.25 0 80.34 0Q79.93-2 79.83-3.64L79.83-3.64Q78.44-1.86 76.35-0.67 74.26 0.51 71.89 0.51ZM72.6-3.52L72.6-3.52Q75-3.52 76.97-4.66 78.95-5.81 79.8-7.42L79.8-7.42 79.8-12.21 74.92-12.21Q71.6-12.21 69.94-10.62 68.28-9.03 68.28-7.08L68.28-7.08Q68.28-3.52 72.6-3.52ZM99.72-18.73L99.72-18.73 99.72-3.76 103.7-3.08 103.7 0 90.93 0 90.93-3.08 94.91-3.76 94.91-22.63 90.93-23.32 90.93-26.42 99.21-26.42 99.63-23.05 99.68-22.58Q100.8-24.61 102.45-25.76 104.09-26.9 106.22-26.9L106.22-26.9Q106.97-26.9 107.77-26.77 108.56-26.64 108.9-26.51L108.9-26.51 108.27-22.05 104.92-22.24Q103.02-22.36 101.73-21.37 100.43-20.39 99.72-18.73ZM123.87 0.51L123.87 0.51Q120.2 0.51 117.49-1.17L117.49-1.17Q114.78-2.83 113.31-5.81 111.83-8.79 111.83-12.7L111.83-12.7 111.83-13.77Q111.83-17.55 113.39-20.51L113.39-20.51Q114.93-23.49 117.51-25.2 120.08-26.9 123.13-26.9L123.13-26.9Q126.7-26.9 129.12-25.44L129.12-25.44Q131.51-23.97 132.73-21.33 133.95-18.68 133.95-15.09L133.95-15.09 133.95-12.08 116.81-12.08 116.74-11.96Q116.76-9.47 117.64-7.47L117.64-7.47Q118.5-5.49 120.07-4.37 121.65-3.25 123.87-3.25L123.87-3.25Q126.31-3.25 128.15-3.94 129.99-4.64 131.34-5.86L131.34-5.86 133.22-2.73Q131.8-1.37 129.47-0.43 127.14 0.51 123.87 0.51ZM116.91-15.97L116.91-15.97 116.96-15.84 129.14-15.84 129.14-16.48Q129.14-18.41 128.48-19.9L128.48-19.9Q127.8-21.41 126.47-22.27 125.14-23.12 123.13-23.12L123.13-23.12Q121.55-23.12 120.2-22.19L120.2-22.19Q117.47-20.21 116.91-15.97ZM154.53-3.08L158.51-3.76 158.51-34.3 154.53-34.99 154.53-38.09 163.32-38.09 163.32-3.76 167.29-3.08 167.29 0 154.53 0 154.53-3.08ZM179.33-32.93L174.27-32.93 174.27-38.09 179.33-38.09 179.33-32.93ZM170.54-3.08L174.52-3.76 174.52-22.63 170.54-23.32 170.54-26.42 179.33-26.42 179.33-3.76 183.31-3.08 183.31 0 170.54 0 170.54-3.08ZM204.52-22.85L204.64-23 201.81-23.32 201.81-26.42 213.19-26.42 213.19-23.32 209.79-22.68 202.37-15.21 211.48-3.66 215.29-3.08 215.29 0 203.35 0 203.35-3.08 206.03-3.39 205.96-3.49 199.27-12.11 195.17-7.98 195.17-3.76 199.15-3.08 199.15 0 186.38 0 186.38-3.08 190.36-3.76 190.36-34.3 186.38-34.99 186.38-38.09 195.17-38.09 195.17-13.55 204.52-22.85ZM229.08 0.51L229.08 0.51Q225.42 0.51 222.71-1.17L222.71-1.17Q220-2.83 218.52-5.81 217.04-8.79 217.04-12.7L217.04-12.7 217.04-13.77Q217.04-17.55 218.61-20.51L218.61-20.51Q220.14-23.49 222.72-25.2 225.29-26.9 228.35-26.9L228.35-26.9Q231.91-26.9 234.33-25.44L234.33-25.44Q236.72-23.97 237.94-21.33 239.16-18.68 239.16-15.09L239.16-15.09 239.16-12.08 222.02-12.08 221.95-11.96Q221.97-9.47 222.85-7.47L222.85-7.47Q223.71-5.49 225.28-4.37 226.86-3.25 229.08-3.25L229.08-3.25Q231.52-3.25 233.36-3.94 235.21-4.64 236.55-5.86L236.55-5.86 238.43-2.73Q237.01-1.37 234.68-0.43 232.35 0.51 229.08 0.51ZM222.12-15.97L222.12-15.97 222.17-15.84 234.35-15.84 234.35-16.48Q234.35-18.41 233.69-19.9L233.69-19.9Q233.01-21.41 231.68-22.27 230.35-23.12 228.35-23.12L228.35-23.12Q226.76-23.12 225.42-22.19L225.42-22.19Q222.68-20.21 222.12-15.97ZM268.53 0.51L268.53 0.51Q264.4 0.51 262.25-1.5 260.1-3.52 260.1-7.18L260.1-7.18Q260.1-9.72 261.5-11.57L261.5-11.57Q262.86-13.45 265.48-14.48 268.09-15.5 271.73-15.5L271.73-15.5 276.44-15.5 276.44-18.09Q276.44-20.48 274.98-21.8 273.53-23.12 270.9-23.12L270.9-23.12Q269.24-23.12 268.01-22.72 266.79-22.31 265.79-21.61L265.79-21.61 265.28-17.92 261.57-17.92 261.57-23.97Q265.16-26.9 270.97-26.9L270.97-26.9Q275.78-26.9 278.51-24.61 281.25-22.31 281.25-18.04L281.25-18.04 281.25-5.32Q281.25-4.81 281.26-4.32 281.27-3.83 281.32-3.34L281.32-3.34 283.88-3.08 283.88 0 276.97 0Q276.56-2 276.46-3.64L276.46-3.64Q275.07-1.86 272.98-0.67 270.9 0.51 268.53 0.51ZM269.24-3.52L269.24-3.52Q271.63-3.52 273.61-4.66 275.58-5.81 276.44-7.42L276.44-7.42 276.44-12.21 271.55-12.21Q268.23-12.21 266.57-10.62 264.91-9.03 264.91-7.08L264.91-7.08Q264.91-3.52 269.24-3.52ZM321.21-14.26L321.21-14.26 313.66-14.26 313.66-3.76 317.64-3.08 317.64 0 304.87 0 304.87-3.08 308.85-3.76 308.85-31.76 304.87-32.45 304.87-35.55 321.21-35.55Q325.04-35.55 327.7-34.23L327.7-34.23Q333.22-31.49 333.22-24.9L333.22-24.9Q333.22-21.66 331.8-19.29L331.8-19.29Q330.39-16.89 327.7-15.58 325.02-14.26 321.21-14.26ZM321.21-31.76L321.21-31.76 313.66-31.76 313.66-18.02 321.21-18.02Q324.82-18.02 326.62-19.96 328.41-21.9 328.41-24.85L328.41-24.85Q328.41-27.81 326.62-29.79 324.82-31.76 321.21-31.76ZM345.11-18.73L345.11-18.73 345.11-3.76 349.09-3.08 349.09 0 336.32 0 336.32-3.08 340.3-3.76 340.3-22.63 336.32-23.32 336.32-26.42 344.59-26.42 345.01-23.05 345.06-22.58Q346.18-24.61 347.83-25.76 349.48-26.9 351.6-26.9L351.6-26.9Q352.36-26.9 353.15-26.77 353.94-26.64 354.29-26.51L354.29-26.51 353.65-22.05 350.31-22.24Q348.4-22.36 347.11-21.37 345.81-20.39 345.11-18.73ZM369.15 0.51L369.15 0.51Q365.51 0.51 362.85-1.22L362.85-1.22Q360.19-2.95 358.75-5.98 357.31-9.01 357.31-12.92L357.31-12.92 357.31-13.45Q357.31-17.33 358.75-20.41L358.75-20.41Q360.19-23.46 362.84-25.18 365.49-26.9 369.1-26.9L369.1-26.9Q372.74-26.9 375.43-25.17L375.43-25.17Q378.06-23.44 379.5-20.41 380.94-17.38 380.94-13.45L380.94-13.45 380.94-12.92Q380.94-9.03 379.5-5.96L379.5-5.96Q378.06-2.93 375.43-1.21 372.79 0.51 369.15 0.51ZM369.15-3.25L369.15-3.25Q371.45-3.25 373.01-4.52L373.01-4.52Q374.55-5.76 375.34-7.95 376.13-10.13 376.13-12.92L376.13-12.92 376.13-13.45Q376.13-16.21 375.35-18.43L375.35-18.43Q374.55-20.61 372.98-21.86 371.42-23.12 369.1-23.12L369.1-23.12Q366.83-23.12 365.25-21.88L365.25-21.88Q363.68-20.61 362.9-18.42 362.12-16.24 362.12-13.45L362.12-13.45 362.12-12.92Q362.12-10.16 362.9-7.96L362.9-7.96Q363.68-5.76 365.26-4.5 366.83-3.25 369.15-3.25Z" opacity="1" transform="matrix(1,0,0,1,0,0)" fill="black" class="slogan-text-1" id="SvgjsPath1835"></path></svg></g></svg></g></svg></g></svg></g><g><svg viewBox="0 0 226.04004009420174 226.04004009420174" height="226.04004009420174" width="226.04004009420174"><g><svg></svg></g><g id="SvgjsG1834"><svg viewBox="0 0 226.04004009420174 226.04004009420174" height="226.04004009420174" width="226.04004009420174"><g><path d="M0 113.02c0-62.419 50.601-113.02 113.02-113.02 62.419 0 113.02 50.601 113.02 113.02 0 62.419-50.601 113.02-113.02 113.02-62.419 0-113.02-50.601-113.02-113.02zM113.02 219.205c58.644 0 106.185-47.541 106.185-106.185 0-58.644-47.541-106.185-106.185-106.185-58.644 0-106.185 47.541-106.185 106.185 0 58.644 47.541 106.185 106.185 106.185z" fill="black" stroke="transparent"></path><ellipse rx="111.88981984662986" ry="111.88981984662986" cx="113.02002004710087" cy="113.02002004710087" fill="black" stroke="transparent" stroke-width="0" fill-opacity="1"></ellipse></g><g transform="matrix(1,0,0,1,48.800770925036005,55.849785205974975)"><svg viewBox="0 0 128.43849824412973 114.3404696822518" height="114.3404696822518" width="128.43849824412973"><g><svg version="1.1" xmlns="http://www.w3.org/2000/svg" xmlns:xlink="http://www.w3.org/1999/xlink" x="0" y="0" viewBox="0 0 100 89.02351806147632" enable-background="new 0 0 100 89.14" xml:space="preserve" id="SvgjsSvg1833" width="128.43849824412973" height="114.3404696822518" class="icon-dxe-0" data-fill-palette-color="quaternary"><path fill="black" d="M43.198 52.033A22.4 22.4 0 0 1 56.926 52.078L56.863 19.608H68.627L50.98 0 31.373 19.608H43.138z"></path><path fill="black" d="M72.274 21.568L80.687 29.791 58.446 52.637A22.65 22.65 0 0 1 69.015 61.46L90.505 39.384 98.919 47.607 100 21.568z"></path><path fill="black" d="M41.553 52.637L19.312 29.791 27.726 21.568H0L1.082 47.606 9.496 39.383 30.986 61.46A22.64 22.64 0 0 1 41.553 52.637"></path><circle fill="black" cx="50" cy="73.529" r="16"></circle></svg></g></svg></g></svg></g></svg></g></svg></g><defs><mask></mask></defs></svg><rect width="395.52" height="136.00684723601535" fill="black" stroke="none" visibility="hidden"></rect></g></mask><linearGradient x1="0.054" x2="0.941" y1="0.5" y2="0.5" id="d5c9b54b-4bfb-4e13-8b66-7e435ea1a631"><stop stop-color="#26282a" offset="0"></stop><stop stop-color="#9e9fa0" offset="0.498"></stop><stop stop-color="#26282a" offset="1"></stop></linearGradient><rect width="395.52" height="136.00684723601535" fill="url(#d5c9b54b-4bfb-4e13-8b66-7e435ea1a631)" mask="url(#99b4e29a-c984-47ca-ba49-cfaa8ea96dd1)" data-fill-palette-color="primary"></rect><mask id="3c49315b-de4d-4023-aba2-186a5af6bc80"><g id="SvgjsG1852"><svg viewBox="0 0 395.52 136.00684723601535" height="136.00684723601535" width="395.52"><g><svg viewBox="0 0 657.3445269480828 226.04004009420174" height="136.00684723601535" width="395.52"><g transform="matrix(1,0,0,1,261.82452694808285,54.32846166601243)"><svg viewBox="0 0 395.52 117.38311676217688" height="117.38311676217688" width="395.52"><g id="SvgjsG1851"><svg viewBox="0 0 395.52 117.38311676217688" height="117.38311676217688" width="395.52" id="SvgjsSvg1850"><g><svg viewBox="0 0 395.52 75.79018378378379" height="75.79018378378379" width="395.52"><g transform="matrix(1,0,0,1,0,0)"><svg width="395.52" viewBox="3.95 -35.05 184.98000000000002 35.449999999999996" height="75.79018378378379" data-palette-color="url(#d5c9b54b-4bfb-4e13-8b66-7e435ea1a631)"></svg></g></svg></g><g transform="matrix(1,0,0,1,0,93.68242721072433)"><svg viewBox="0 0 232.209792 23.700689551452548" height="23.700689551452548" width="232.209792"><g transform="matrix(1,0,0,1,0,0)"><svg width="232.209792" viewBox="2.81 -38.09 378.13 38.6" height="23.700689551452548" data-palette-color="url(#d4022fa0-2ca5-4b2a-b880-a4344b2a9ecf)"><path d="M14.79 0.51L14.79 0.51Q11.55 0.51 8.54-0.44 5.54-1.39 2.81-3.37L2.81-3.37 2.81-10.96 6.54-10.96 7.35-5.37Q8.94-4.39 10.79-3.86 12.65-3.32 14.79-3.32L14.79-3.32Q17.26-3.32 18.95-4.08L18.95-4.08Q22.44-5.59 22.44-9.2L22.44-9.2Q22.44-10.82 21.66-12.08L21.66-12.08Q20.87-13.33 19.08-14.27 17.29-15.21 14.18-15.92L14.18-15.92Q10.62-16.75 8.01-18.21L8.01-18.21Q2.86-21.12 2.86-26.34L2.86-26.34Q2.86-29.15 4.35-31.32L4.35-31.32Q5.81-33.52 8.45-34.79 11.08-36.06 14.6-36.06L14.6-36.06Q18.33-36.06 21.2-34.92 24.07-33.79 25.93-32.18L25.93-32.18 25.93-25.07 22.19-25.07 21.39-30.15Q20.29-31.03 18.65-31.62 17.02-32.2 14.6-32.2L14.6-32.2Q12.6-32.2 10.99-31.49L10.99-31.49Q9.42-30.76 8.54-29.47 7.67-28.17 7.67-26.42L7.67-26.42Q7.67-24.88 8.47-23.73L8.47-23.73Q9.94-21.56 15.84-20.09L15.84-20.09Q27.25-17.26 27.25-9.25L27.25-9.25Q27.25-6.4 25.71-4.2L25.71-4.2Q24.17-1.98 21.37-0.73 18.58 0.51 14.79 0.51ZM39.43-19.51L39.43-19.51 39.43-3.76 43.41-3.08 43.41 0 30.64 0 30.64-3.08 34.62-3.76 34.62-34.3 30.64-34.99 30.64-38.09 39.43-38.09 39.43-22.9Q40.79-24.8 42.77-25.85 44.75-26.9 47.17-26.9L47.17-26.9Q51.41-26.9 53.76-24.37 56.1-21.83 56.1-16.55L56.1-16.55 56.1-3.76 60.08-3.08 60.08 0 47.31 0 47.31-3.08 51.29-3.76 51.29-16.6Q51.29-23 45.7-23L45.7-23Q43.72-23 42.1-22.06 40.48-21.12 39.43-19.51ZM71.89 0.51L71.89 0.51Q67.77 0.51 65.62-1.5 63.47-3.52 63.47-7.18L63.47-7.18Q63.47-9.72 64.86-11.57L64.86-11.57Q66.23-13.45 68.84-14.48 71.45-15.5 75.09-15.5L75.09-15.5 79.8-15.5 79.8-18.09Q79.8-20.48 78.35-21.8 76.9-23.12 74.26-23.12L74.26-23.12Q72.6-23.12 71.38-22.72 70.16-22.31 69.16-21.61L69.16-21.61 68.65-17.92 64.94-17.92 64.94-23.97Q68.53-26.9 74.34-26.9L74.34-26.9Q79.15-26.9 81.88-24.61 84.61-22.31 84.61-18.04L84.61-18.04 84.61-5.32Q84.61-4.81 84.63-4.32 84.64-3.83 84.69-3.34L84.69-3.34 87.25-3.08 87.25 0 80.34 0Q79.93-2 79.83-3.64L79.83-3.64Q78.44-1.86 76.35-0.67 74.26 0.51 71.89 0.51ZM72.6-3.52L72.6-3.52Q75-3.52 76.97-4.66 78.95-5.81 79.8-7.42L79.8-7.42 79.8-12.21 74.92-12.21Q71.6-12.21 69.94-10.62 68.28-9.03 68.28-7.08L68.28-7.08Q68.28-3.52 72.6-3.52ZM99.72-18.73L99.72-18.73 99.72-3.76 103.7-3.08 103.7 0 90.93 0 90.93-3.08 94.91-3.76 94.91-22.63 90.93-23.32 90.93-26.42 99.21-26.42 99.63-23.05 99.68-22.58Q100.8-24.61 102.45-25.76 104.09-26.9 106.22-26.9L106.22-26.9Q106.97-26.9 107.77-26.77 108.56-26.64 108.9-26.51L108.9-26.51 108.27-22.05 104.92-22.24Q103.02-22.36 101.73-21.37 100.43-20.39 99.72-18.73ZM123.87 0.51L123.87 0.51Q120.2 0.51 117.49-1.17L117.49-1.17Q114.78-2.83 113.31-5.81 111.83-8.79 111.83-12.7L111.83-12.7 111.83-13.77Q111.83-17.55 113.39-20.51L113.39-20.51Q114.93-23.49 117.51-25.2 120.08-26.9 123.13-26.9L123.13-26.9Q126.7-26.9 129.12-25.44L129.12-25.44Q131.51-23.97 132.73-21.33 133.95-18.68 133.95-15.09L133.95-15.09 133.95-12.08 116.81-12.08 116.74-11.96Q116.76-9.47 117.64-7.47L117.64-7.47Q118.5-5.49 120.07-4.37 121.65-3.25 123.87-3.25L123.87-3.25Q126.31-3.25 128.15-3.94 129.99-4.64 131.34-5.86L131.34-5.86 133.22-2.73Q131.8-1.37 129.47-0.43 127.14 0.51 123.87 0.51ZM116.91-15.97L116.91-15.97 116.96-15.84 129.14-15.84 129.14-16.48Q129.14-18.41 128.48-19.9L128.48-19.9Q127.8-21.41 126.47-22.27 125.14-23.12 123.13-23.12L123.13-23.12Q121.55-23.12 120.2-22.19L120.2-22.19Q117.47-20.21 116.91-15.97ZM154.53-3.08L158.51-3.76 158.51-34.3 154.53-34.99 154.53-38.09 163.32-38.09 163.32-3.76 167.29-3.08 167.29 0 154.53 0 154.53-3.08ZM179.33-32.93L174.27-32.93 174.27-38.09 179.33-38.09 179.33-32.93ZM170.54-3.08L174.52-3.76 174.52-22.63 170.54-23.32 170.54-26.42 179.33-26.42 179.33-3.76 183.31-3.08 183.31 0 170.54 0 170.54-3.08ZM204.52-22.85L204.64-23 201.81-23.32 201.81-26.42 213.19-26.42 213.19-23.32 209.79-22.68 202.37-15.21 211.48-3.66 215.29-3.08 215.29 0 203.35 0 203.35-3.08 206.03-3.39 205.96-3.49 199.27-12.11 195.17-7.98 195.17-3.76 199.15-3.08 199.15 0 186.38 0 186.38-3.08 190.36-3.76 190.36-34.3 186.38-34.99 186.38-38.09 195.17-38.09 195.17-13.55 204.52-22.85ZM229.08 0.51L229.08 0.51Q225.42 0.51 222.71-1.17L222.71-1.17Q220-2.83 218.52-5.81 217.04-8.79 217.04-12.7L217.04-12.7 217.04-13.77Q217.04-17.55 218.61-20.51L218.61-20.51Q220.14-23.49 222.72-25.2 225.29-26.9 228.35-26.9L228.35-26.9Q231.91-26.9 234.33-25.44L234.33-25.44Q236.72-23.97 237.94-21.33 239.16-18.68 239.16-15.09L239.16-15.09 239.16-12.08 222.02-12.08 221.95-11.96Q221.97-9.47 222.85-7.47L222.85-7.47Q223.71-5.49 225.28-4.37 226.86-3.25 229.08-3.25L229.08-3.25Q231.52-3.25 233.36-3.94 235.21-4.64 236.55-5.86L236.55-5.86 238.43-2.73Q237.01-1.37 234.68-0.43 232.35 0.51 229.08 0.51ZM222.12-15.97L222.12-15.97 222.17-15.84 234.35-15.84 234.35-16.48Q234.35-18.41 233.69-19.9L233.69-19.9Q233.01-21.41 231.68-22.27 230.35-23.12 228.35-23.12L228.35-23.12Q226.76-23.12 225.42-22.19L225.42-22.19Q222.68-20.21 222.12-15.97ZM268.53 0.51L268.53 0.51Q264.4 0.51 262.25-1.5 260.1-3.52 260.1-7.18L260.1-7.18Q260.1-9.72 261.5-11.57L261.5-11.57Q262.86-13.45 265.48-14.48 268.09-15.5 271.73-15.5L271.73-15.5 276.44-15.5 276.44-18.09Q276.44-20.48 274.98-21.8 273.53-23.12 270.9-23.12L270.9-23.12Q269.24-23.12 268.01-22.72 266.79-22.31 265.79-21.61L265.79-21.61 265.28-17.92 261.57-17.92 261.57-23.97Q265.16-26.9 270.97-26.9L270.97-26.9Q275.78-26.9 278.51-24.61 281.25-22.31 281.25-18.04L281.25-18.04 281.25-5.32Q281.25-4.81 281.26-4.32 281.27-3.83 281.32-3.34L281.32-3.34 283.88-3.08 283.88 0 276.97 0Q276.56-2 276.46-3.64L276.46-3.64Q275.07-1.86 272.98-0.67 270.9 0.51 268.53 0.51ZM269.24-3.52L269.24-3.52Q271.63-3.52 273.61-4.66 275.58-5.81 276.44-7.42L276.44-7.42 276.44-12.21 271.55-12.21Q268.23-12.21 266.57-10.62 264.91-9.03 264.91-7.08L264.91-7.08Q264.91-3.52 269.24-3.52ZM321.21-14.26L321.21-14.26 313.66-14.26 313.66-3.76 317.64-3.08 317.64 0 304.87 0 304.87-3.08 308.85-3.76 308.85-31.76 304.87-32.45 304.87-35.55 321.21-35.55Q325.04-35.55 327.7-34.23L327.7-34.23Q333.22-31.49 333.22-24.9L333.22-24.9Q333.22-21.66 331.8-19.29L331.8-19.29Q330.39-16.89 327.7-15.58 325.02-14.26 321.21-14.26ZM321.21-31.76L321.21-31.76 313.66-31.76 313.66-18.02 321.21-18.02Q324.82-18.02 326.62-19.96 328.41-21.9 328.41-24.85L328.41-24.85Q328.41-27.81 326.62-29.79 324.82-31.76 321.21-31.76ZM345.11-18.73L345.11-18.73 345.11-3.76 349.09-3.08 349.09 0 336.32 0 336.32-3.08 340.3-3.76 340.3-22.63 336.32-23.32 336.32-26.42 344.59-26.42 345.01-23.05 345.06-22.58Q346.18-24.61 347.83-25.76 349.48-26.9 351.6-26.9L351.6-26.9Q352.36-26.9 353.15-26.77 353.94-26.64 354.29-26.51L354.29-26.51 353.65-22.05 350.31-22.24Q348.4-22.36 347.11-21.37 345.81-20.39 345.11-18.73ZM369.15 0.51L369.15 0.51Q365.51 0.51 362.85-1.22L362.85-1.22Q360.19-2.95 358.75-5.98 357.31-9.01 357.31-12.92L357.31-12.92 357.31-13.45Q357.31-17.33 358.75-20.41L358.75-20.41Q360.19-23.46 362.84-25.18 365.49-26.9 369.1-26.9L369.1-26.9Q372.74-26.9 375.43-25.17L375.43-25.17Q378.06-23.44 379.5-20.41 380.94-17.38 380.94-13.45L380.94-13.45 380.94-12.92Q380.94-9.03 379.5-5.96L379.5-5.96Q378.06-2.93 375.43-1.21 372.79 0.51 369.15 0.51ZM369.15-3.25L369.15-3.25Q371.45-3.25 373.01-4.52L373.01-4.52Q374.55-5.76 375.34-7.95 376.13-10.13 376.13-12.92L376.13-12.92 376.13-13.45Q376.13-16.21 375.35-18.43L375.35-18.43Q374.55-20.61 372.98-21.86 371.42-23.12 369.1-23.12L369.1-23.12Q366.83-23.12 365.25-21.88L365.25-21.88Q363.68-20.61 362.9-18.42 362.12-16.24 362.12-13.45L362.12-13.45 362.12-12.92Q362.12-10.16 362.9-7.96L362.9-7.96Q363.68-5.76 365.26-4.5 366.83-3.25 369.15-3.25Z" opacity="1" transform="matrix(1,0,0,1,0,0)" fill="white" class="slogan-text-1" id="SvgjsPath1849"></path></svg></g></svg></g></svg></g></svg></g><g><svg viewBox="0 0 226.04004009420174 226.04004009420174" height="226.04004009420174" width="226.04004009420174"><g><svg></svg></g><g id="SvgjsG1848"><svg viewBox="0 0 226.04004009420174 226.04004009420174" height="226.04004009420174" width="226.04004009420174"><g><path d="M0 113.02c0-62.419 50.601-113.02 113.02-113.02 62.419 0 113.02 50.601 113.02 113.02 0 62.419-50.601 113.02-113.02 113.02-62.419 0-113.02-50.601-113.02-113.02zM113.02 219.205c58.644 0 106.185-47.541 106.185-106.185 0-58.644-47.541-106.185-106.185-106.185-58.644 0-106.185 47.541-106.185 106.185 0 58.644 47.541 106.185 106.185 106.185z" fill="black" stroke="transparent"></path><ellipse rx="111.88981984662986" ry="111.88981984662986" cx="113.02002004710087" cy="113.02002004710087" fill="black" stroke="transparent" stroke-width="0" fill-opacity="1"></ellipse></g><g transform="matrix(1,0,0,1,48.800770925036005,55.849785205974975)"><svg viewBox="0 0 128.43849824412973 114.3404696822518" height="114.3404696822518" width="128.43849824412973"><g><svg version="1.1" xmlns="http://www.w3.org/2000/svg" xmlns:xlink="http://www.w3.org/1999/xlink" x="0" y="0" viewBox="0 0 100 89.02351806147632" enable-background="new 0 0 100 89.14" xml:space="preserve" id="SvgjsSvg1847" width="128.43849824412973" height="114.3404696822518" class="icon-dxe-0" data-fill-palette-color="quaternary"><path fill="black" d="M43.198 52.033A22.4 22.4 0 0 1 56.926 52.078L56.863 19.608H68.627L50.98 0 31.373 19.608H43.138z"></path><path fill="black" d="M72.274 21.568L80.687 29.791 58.446 52.637A22.65 22.65 0 0 1 69.015 61.46L90.505 39.384 98.919 47.607 100 21.568z"></path><path fill="black" d="M41.553 52.637L19.312 29.791 27.726 21.568H0L1.082 47.606 9.496 39.383 30.986 61.46A22.64 22.64 0 0 1 41.553 52.637"></path><circle fill="black" cx="50" cy="73.529" r="16"></circle></svg></g></svg></g></svg></g></svg></g></svg></g><defs><mask></mask></defs><mask><g id="SvgjsG1846"><svg viewBox="0 0 395.52 136.00684723601535" height="136.00684723601535" width="395.52"><g><svg viewBox="0 0 657.3445269480828 226.04004009420174" height="136.00684723601535" width="395.52"><g transform="matrix(1,0,0,1,261.82452694808285,54.32846166601243)"><svg viewBox="0 0 395.52 117.38311676217688" height="117.38311676217688" width="395.52"><g id="SvgjsG1845"><svg viewBox="0 0 395.52 117.38311676217688" height="117.38311676217688" width="395.52" id="SvgjsSvg1844"><g><svg viewBox="0 0 395.52 75.79018378378379" height="75.79018378378379" width="395.52"><g transform="matrix(1,0,0,1,0,0)"><svg width="395.52" viewBox="3.95 -35.05 184.98000000000002 35.449999999999996" height="75.79018378378379" data-palette-color="url(#d5c9b54b-4bfb-4e13-8b66-7e435ea1a631)"><path d="M15.15-35.05Q19.15-35.05 21.63-32.38 24.1-29.7 24.1-25.3L24.1-25.3Q24.1-20.95 21.63-18.32 19.15-15.7 15.15-15.7L15.15-15.7 7.7-15.7Q7.5-15.7 7.5-15.5L7.5-15.5 7.5-0.5Q7.5 0 7 0L7 0 4.45 0Q3.95 0 3.95-0.5L3.95-0.5 3.95-34.55Q3.95-35.05 4.45-35.05L4.45-35.05 15.15-35.05ZM14.7-18.65Q17.35-18.65 18.95-20.45 20.55-22.25 20.55-25.25L20.55-25.25Q20.55-28.3 18.95-30.13 17.35-31.95 14.7-31.95L14.7-31.95 7.7-31.95Q7.5-31.95 7.5-31.75L7.5-31.75 7.5-18.85Q7.5-18.65 7.7-18.65L7.7-18.65 14.7-18.65ZM36.05 0.4Q31.6 0.4 28.92-2.2 26.25-4.8 26.25-9.05L26.25-9.05 26.25-13.05Q26.25-13.55 26.75-13.55L26.75-13.55 29.3-13.55Q29.8-13.55 29.8-13.05L29.8-13.05 29.8-9Q29.8-6.15 31.5-4.42 33.2-2.7 36.05-2.7L36.05-2.7Q38.85-2.7 40.6-4.45 42.35-6.2 42.35-9L42.35-9 42.35-34.5Q42.35-35 42.85-35L42.85-35 45.35-35Q45.85-35 45.85-34.5L45.85-34.5 45.85-9.05Q45.85-4.8 43.15-2.2 40.45 0.4 36.05 0.4L36.05 0.4ZM73.64-23Q73.64-22.5 73.14-22.5L73.14-22.5 68.39-22.5Q68.19-22.5 68.19-22.3L68.19-22.3 68.19-7.3Q68.19-4.95 69.12-4.03 70.04-3.1 72.09-3.1L72.09-3.1 72.94-3.1Q73.44-3.1 73.44-2.6L73.44-2.6 73.44-0.5Q73.44 0 72.94 0L72.94 0 71.39 0.05Q68.14 0.05 66.44-1.28 64.74-2.6 64.74-6.2L64.74-6.2 64.74-22.3Q64.74-22.5 64.54-22.5L64.54-22.5 62.04-22.5Q61.54-22.5 61.54-23L61.54-23 61.54-24.8Q61.54-25.3 62.04-25.3L62.04-25.3 64.54-25.3Q64.74-25.3 64.74-25.5L64.74-25.5 64.74-31.2Q64.74-31.7 65.24-31.7L65.24-31.7 67.69-31.7Q68.19-31.7 68.19-31.2L68.19-31.2 68.19-25.5Q68.19-25.3 68.39-25.3L68.39-25.3 73.14-25.3Q73.64-25.3 73.64-24.8L73.64-24.8 73.64-23ZM83.89 0Q83.44 0 83.34-0.45L83.34-0.45 77.19-24.75 77.14-24.95Q77.14-25.3 77.59-25.3L77.59-25.3 80.09-25.3Q80.54-25.3 80.64-24.85L80.64-24.85 85.14-5.65Q85.19-5.5 85.24-5.5 85.29-5.5 85.34-5.65L85.34-5.65 89.89-24.85Q89.99-25.3 90.44-25.3L90.44-25.3 92.74-25.3Q93.24-25.3 93.29-24.85L93.29-24.85 97.94-5.7Q97.99-5.55 98.04-5.55 98.09-5.55 98.14-5.7L98.14-5.7 102.69-24.85Q102.79-25.3 103.24-25.3L103.24-25.3 105.79-25.25Q106.04-25.25 106.17-25.1 106.29-24.95 106.19-24.7L106.19-24.7 99.94-0.45Q99.89 0 99.39 0L99.39 0 96.79 0Q96.34 0 96.24-0.45L96.24-0.45 91.69-18.95Q91.64-19.1 91.57-19.1 91.49-19.1 91.44-18.95L91.44-18.95 87.04-0.45Q86.94 0 86.49 0L86.49 0 83.89 0ZM119.09-2.7Q120.99-2.7 122.36-3.68 123.74-4.65 124.34-6.3L124.34-6.3Q124.49-6.75 124.94-6.65L124.94-6.65 127.24-6.2Q127.49-6.15 127.56-5.98 127.64-5.8 127.59-5.6L127.59-5.6Q126.74-2.8 124.49-1.2 122.24 0.4 119.04 0.4L119.04 0.4Q115.39 0.4 113.09-1.53 110.79-3.45 110.24-6.75L110.24-6.75Q110.04-8 109.99-9.7 109.94-11.4 109.94-12.53 109.94-13.65 109.94-14.1L109.94-14.1Q109.94-16.65 110.14-18.25L110.14-18.25Q110.54-21.6 112.91-23.65 115.29-25.7 118.89-25.7L118.89-25.7Q122.74-25.7 125.14-23.5 127.54-21.3 127.84-17.7L127.84-17.7Q127.99-16.05 127.99-11.65L127.99-11.65Q127.99-11.15 127.49-11.15L127.49-11.15 113.69-11.15Q113.49-11.15 113.49-10.95L113.49-10.95Q113.49-9.4 113.59-7.5L113.59-7.5Q113.84-5.35 115.31-4.03 116.79-2.7 119.09-2.7L119.09-2.7ZM118.94-22.6Q116.69-22.6 115.26-21.28 113.84-19.95 113.59-17.8L113.59-17.8Q113.49-15.7 113.49-14.3L113.49-14.3Q113.49-14.1 113.69-14.1L113.69-14.1 124.24-14.1Q124.44-14.1 124.44-14.3L124.44-14.3Q124.44-15.75 124.24-17.75L124.24-17.75Q123.99-19.9 122.56-21.25 121.14-22.6 118.94-22.6L118.94-22.6ZM142.59-2.7Q144.49-2.7 145.86-3.68 147.24-4.65 147.84-6.3L147.84-6.3Q147.99-6.75 148.44-6.65L148.44-6.65 150.74-6.2Q150.99-6.15 151.06-5.98 151.14-5.8 151.09-5.6L151.09-5.6Q150.24-2.8 147.99-1.2 145.74 0.4 142.54 0.4L142.54 0.4Q138.89 0.4 136.59-1.53 134.29-3.45 133.74-6.75L133.74-6.75Q133.54-8 133.49-9.7 133.44-11.4 133.44-12.53 133.44-13.65 133.44-14.1L133.44-14.1Q133.44-16.65 133.64-18.25L133.64-18.25Q134.04-21.6 136.41-23.65 138.79-25.7 142.39-25.7L142.39-25.7Q146.24-25.7 148.64-23.5 151.04-21.3 151.34-17.7L151.34-17.7Q151.49-16.05 151.49-11.65L151.49-11.65Q151.49-11.15 150.99-11.15L150.99-11.15 137.19-11.15Q136.99-11.15 136.99-10.95L136.99-10.95Q136.99-9.4 137.09-7.5L137.09-7.5Q137.34-5.35 138.81-4.03 140.29-2.7 142.59-2.7L142.59-2.7ZM142.44-22.6Q140.19-22.6 138.76-21.28 137.34-19.95 137.09-17.8L137.09-17.8Q136.99-15.7 136.99-14.3L136.99-14.3Q136.99-14.1 137.19-14.1L137.19-14.1 147.74-14.1Q147.94-14.1 147.94-14.3L147.94-14.3Q147.94-15.75 147.74-17.75L147.74-17.75Q147.49-19.9 146.06-21.25 144.64-22.6 142.44-22.6L142.44-22.6ZM167.43-23Q167.43-22.5 166.93-22.5L166.93-22.5 162.18-22.5Q161.98-22.5 161.98-22.3L161.98-22.3 161.98-7.3Q161.98-4.95 162.91-4.03 163.83-3.1 165.88-3.1L165.88-3.1 166.73-3.1Q167.23-3.1 167.23-2.6L167.23-2.6 167.23-0.5Q167.23 0 166.73 0L166.73 0 165.18 0.05Q161.93 0.05 160.23-1.28 158.53-2.6 158.53-6.2L158.53-6.2 158.53-22.3Q158.53-22.5 158.33-22.5L158.33-22.5 155.83-22.5Q155.33-22.5 155.33-23L155.33-23 155.33-24.8Q155.33-25.3 155.83-25.3L155.83-25.3 158.33-25.3Q158.53-25.3 158.53-25.5L158.53-25.5 158.53-31.2Q158.53-31.7 159.03-31.7L159.03-31.7 161.48-31.7Q161.98-31.7 161.98-31.2L161.98-31.2 161.98-25.5Q161.98-25.3 162.18-25.3L162.18-25.3 166.93-25.3Q167.43-25.3 167.43-24.8L167.43-24.8 167.43-23ZM180.48 0.25Q176.63 0.25 174.28-1.6 171.93-3.45 171.93-6.35L171.93-6.35 171.93-6.8Q171.93-7.3 172.43-7.3L172.43-7.3 174.88-7.3Q175.38-7.3 175.38-6.8L175.38-6.8 175.38-6.45Q175.38-4.85 176.81-3.68 178.23-2.5 180.48-2.5L180.48-2.5Q182.68-2.5 184.03-3.65 185.38-4.8 185.38-6.55L185.38-6.55Q185.38-7.8 184.63-8.65 183.88-9.5 182.78-10 181.68-10.5 179.73-11.15L179.73-11.15Q177.38-11.95 175.83-12.75 174.28-13.55 173.21-14.98 172.13-16.4 172.13-18.6L172.13-18.6Q172.13-21.8 174.38-23.68 176.63-25.55 180.33-25.55L180.33-25.55Q184.13-25.55 186.41-23.6 188.68-21.65 188.68-18.6L188.68-18.6 188.68-18.5Q188.68-18 188.18-18L188.18-18 185.88-18Q185.38-18 185.38-18.5L185.38-18.5 185.38-18.7Q185.38-20.4 184.01-21.53 182.63-22.65 180.33-22.65L180.33-22.65Q178.18-22.65 176.86-21.58 175.53-20.5 175.53-18.8L175.53-18.8Q175.53-17.05 176.86-16.15 178.18-15.25 181.03-14.25L181.03-14.25Q183.48-13.45 185.08-12.65 186.68-11.85 187.81-10.43 188.93-9 188.93-6.75L188.93-6.75Q188.93-3.55 186.63-1.65 184.33 0.25 180.48 0.25L180.48 0.25Z" opacity="1" transform="matrix(1,0,0,1,0,0)" fill="black" class="wordmark-text-0" id="SvgjsPath1843"></path></svg></g></svg></g><g transform="matrix(1,0,0,1,0,93.68242721072433)"><svg viewBox="0 0 232.209792 23.700689551452548" height="23.700689551452548" width="232.209792"><g transform="matrix(1,0,0,1,0,0)"><svg width="232.209792" viewBox="2.81 -38.09 378.13 38.6" height="23.700689551452548" data-palette-color="url(#d4022fa0-2ca5-4b2a-b880-a4344b2a9ecf)"><path d="M14.79 0.51L14.79 0.51Q11.55 0.51 8.54-0.44 5.54-1.39 2.81-3.37L2.81-3.37 2.81-10.96 6.54-10.96 7.35-5.37Q8.94-4.39 10.79-3.86 12.65-3.32 14.79-3.32L14.79-3.32Q17.26-3.32 18.95-4.08L18.95-4.08Q22.44-5.59 22.44-9.2L22.44-9.2Q22.44-10.82 21.66-12.08L21.66-12.08Q20.87-13.33 19.08-14.27 17.29-15.21 14.18-15.92L14.18-15.92Q10.62-16.75 8.01-18.21L8.01-18.21Q2.86-21.12 2.86-26.34L2.86-26.34Q2.86-29.15 4.35-31.32L4.35-31.32Q5.81-33.52 8.45-34.79 11.08-36.06 14.6-36.06L14.6-36.06Q18.33-36.06 21.2-34.92 24.07-33.79 25.93-32.18L25.93-32.18 25.93-25.07 22.19-25.07 21.39-30.15Q20.29-31.03 18.65-31.62 17.02-32.2 14.6-32.2L14.6-32.2Q12.6-32.2 10.99-31.49L10.99-31.49Q9.42-30.76 8.54-29.47 7.67-28.17 7.67-26.42L7.67-26.42Q7.67-24.88 8.47-23.73L8.47-23.73Q9.94-21.56 15.84-20.09L15.84-20.09Q27.25-17.26 27.25-9.25L27.25-9.25Q27.25-6.4 25.71-4.2L25.71-4.2Q24.17-1.98 21.37-0.73 18.58 0.51 14.79 0.51ZM39.43-19.51L39.43-19.51 39.43-3.76 43.41-3.08 43.41 0 30.64 0 30.64-3.08 34.62-3.76 34.62-34.3 30.64-34.99 30.64-38.09 39.43-38.09 39.43-22.9Q40.79-24.8 42.77-25.85 44.75-26.9 47.17-26.9L47.17-26.9Q51.41-26.9 53.76-24.37 56.1-21.83 56.1-16.55L56.1-16.55 56.1-3.76 60.08-3.08 60.08 0 47.31 0 47.31-3.08 51.29-3.76 51.29-16.6Q51.29-23 45.7-23L45.7-23Q43.72-23 42.1-22.06 40.48-21.12 39.43-19.51ZM71.89 0.51L71.89 0.51Q67.77 0.51 65.62-1.5 63.47-3.52 63.47-7.18L63.47-7.18Q63.47-9.72 64.86-11.57L64.86-11.57Q66.23-13.45 68.84-14.48 71.45-15.5 75.09-15.5L75.09-15.5 79.8-15.5 79.8-18.09Q79.8-20.48 78.35-21.8 76.9-23.12 74.26-23.12L74.26-23.12Q72.6-23.12 71.38-22.72 70.16-22.31 69.16-21.61L69.16-21.61 68.65-17.92 64.94-17.92 64.94-23.97Q68.53-26.9 74.34-26.9L74.34-26.9Q79.15-26.9 81.88-24.61 84.61-22.31 84.61-18.04L84.61-18.04 84.61-5.32Q84.61-4.81 84.63-4.32 84.64-3.83 84.69-3.34L84.69-3.34 87.25-3.08 87.25 0 80.34 0Q79.93-2 79.83-3.64L79.83-3.64Q78.44-1.86 76.35-0.67 74.26 0.51 71.89 0.51ZM72.6-3.52L72.6-3.52Q75-3.52 76.97-4.66 78.95-5.81 79.8-7.42L79.8-7.42 79.8-12.21 74.92-12.21Q71.6-12.21 69.94-10.62 68.28-9.03 68.28-7.08L68.28-7.08Q68.28-3.52 72.6-3.52ZM99.72-18.73L99.72-18.73 99.72-3.76 103.7-3.08 103.7 0 90.93 0 90.93-3.08 94.91-3.76 94.91-22.63 90.93-23.32 90.93-26.42 99.21-26.42 99.63-23.05 99.68-22.58Q100.8-24.61 102.45-25.76 104.09-26.9 106.22-26.9L106.22-26.9Q106.97-26.9 107.77-26.77 108.56-26.64 108.9-26.51L108.9-26.51 108.27-22.05 104.92-22.24Q103.02-22.36 101.73-21.37 100.43-20.39 99.72-18.73ZM123.87 0.51L123.87 0.51Q120.2 0.51 117.49-1.17L117.49-1.17Q114.78-2.83 113.31-5.81 111.83-8.79 111.83-12.7L111.83-12.7 111.83-13.77Q111.83-17.55 113.39-20.51L113.39-20.51Q114.93-23.49 117.51-25.2 120.08-26.9 123.13-26.9L123.13-26.9Q126.7-26.9 129.12-25.44L129.12-25.44Q131.51-23.97 132.73-21.33 133.95-18.68 133.95-15.09L133.95-15.09 133.95-12.08 116.81-12.08 116.74-11.96Q116.76-9.47 117.64-7.47L117.64-7.47Q118.5-5.49 120.07-4.37 121.65-3.25 123.87-3.25L123.87-3.25Q126.31-3.25 128.15-3.94 129.99-4.64 131.34-5.86L131.34-5.86 133.22-2.73Q131.8-1.37 129.47-0.43 127.14 0.51 123.87 0.51ZM116.91-15.97L116.91-15.97 116.96-15.84 129.14-15.84 129.14-16.48Q129.14-18.41 128.48-19.9L128.48-19.9Q127.8-21.41 126.47-22.27 125.14-23.12 123.13-23.12L123.13-23.12Q121.55-23.12 120.2-22.19L120.2-22.19Q117.47-20.21 116.91-15.97ZM154.53-3.08L158.51-3.76 158.51-34.3 154.53-34.99 154.53-38.09 163.32-38.09 163.32-3.76 167.29-3.08 167.29 0 154.53 0 154.53-3.08ZM179.33-32.93L174.27-32.93 174.27-38.09 179.33-38.09 179.33-32.93ZM170.54-3.08L174.52-3.76 174.52-22.63 170.54-23.32 170.54-26.42 179.33-26.42 179.33-3.76 183.31-3.08 183.31 0 170.54 0 170.54-3.08ZM204.52-22.85L204.64-23 201.81-23.32 201.81-26.42 213.19-26.42 213.19-23.32 209.79-22.68 202.37-15.21 211.48-3.66 215.29-3.08 215.29 0 203.35 0 203.35-3.08 206.03-3.39 205.96-3.49 199.27-12.11 195.17-7.98 195.17-3.76 199.15-3.08 199.15 0 186.38 0 186.38-3.08 190.36-3.76 190.36-34.3 186.38-34.99 186.38-38.09 195.17-38.09 195.17-13.55 204.52-22.85ZM229.08 0.51L229.08 0.51Q225.42 0.51 222.71-1.17L222.71-1.17Q220-2.83 218.52-5.81 217.04-8.79 217.04-12.7L217.04-12.7 217.04-13.77Q217.04-17.55 218.61-20.51L218.61-20.51Q220.14-23.49 222.72-25.2 225.29-26.9 228.35-26.9L228.35-26.9Q231.91-26.9 234.33-25.44L234.33-25.44Q236.72-23.97 237.94-21.33 239.16-18.68 239.16-15.09L239.16-15.09 239.16-12.08 222.02-12.08 221.95-11.96Q221.97-9.47 222.85-7.47L222.85-7.47Q223.71-5.49 225.28-4.37 226.86-3.25 229.08-3.25L229.08-3.25Q231.52-3.25 233.36-3.94 235.21-4.64 236.55-5.86L236.55-5.86 238.43-2.73Q237.01-1.37 234.68-0.43 232.35 0.51 229.08 0.51ZM222.12-15.97L222.12-15.97 222.17-15.84 234.35-15.84 234.35-16.48Q234.35-18.41 233.69-19.9L233.69-19.9Q233.01-21.41 231.68-22.27 230.35-23.12 228.35-23.12L228.35-23.12Q226.76-23.12 225.42-22.19L225.42-22.19Q222.68-20.21 222.12-15.97ZM268.53 0.51L268.53 0.51Q264.4 0.51 262.25-1.5 260.1-3.52 260.1-7.18L260.1-7.18Q260.1-9.72 261.5-11.57L261.5-11.57Q262.86-13.45 265.48-14.48 268.09-15.5 271.73-15.5L271.73-15.5 276.44-15.5 276.44-18.09Q276.44-20.48 274.98-21.8 273.53-23.12 270.9-23.12L270.9-23.12Q269.24-23.12 268.01-22.72 266.79-22.31 265.79-21.61L265.79-21.61 265.28-17.92 261.57-17.92 261.57-23.97Q265.16-26.9 270.97-26.9L270.97-26.9Q275.78-26.9 278.51-24.61 281.25-22.31 281.25-18.04L281.25-18.04 281.25-5.32Q281.25-4.81 281.26-4.32 281.27-3.83 281.32-3.34L281.32-3.34 283.88-3.08 283.88 0 276.97 0Q276.56-2 276.46-3.64L276.46-3.64Q275.07-1.86 272.98-0.67 270.9 0.51 268.53 0.51ZM269.24-3.52L269.24-3.52Q271.63-3.52 273.61-4.66 275.58-5.81 276.44-7.42L276.44-7.42 276.44-12.21 271.55-12.21Q268.23-12.21 266.57-10.62 264.91-9.03 264.91-7.08L264.91-7.08Q264.91-3.52 269.24-3.52ZM321.21-14.26L321.21-14.26 313.66-14.26 313.66-3.76 317.64-3.08 317.64 0 304.87 0 304.87-3.08 308.85-3.76 308.85-31.76 304.87-32.45 304.87-35.55 321.21-35.55Q325.04-35.55 327.7-34.23L327.7-34.23Q333.22-31.49 333.22-24.9L333.22-24.9Q333.22-21.66 331.8-19.29L331.8-19.29Q330.39-16.89 327.7-15.58 325.02-14.26 321.21-14.26ZM321.21-31.76L321.21-31.76 313.66-31.76 313.66-18.02 321.21-18.02Q324.82-18.02 326.62-19.96 328.41-21.9 328.41-24.85L328.41-24.85Q328.41-27.81 326.62-29.79 324.82-31.76 321.21-31.76ZM345.11-18.73L345.11-18.73 345.11-3.76 349.09-3.08 349.09 0 336.32 0 336.32-3.08 340.3-3.76 340.3-22.63 336.32-23.32 336.32-26.42 344.59-26.42 345.01-23.05 345.06-22.58Q346.18-24.61 347.83-25.76 349.48-26.9 351.6-26.9L351.6-26.9Q352.36-26.9 353.15-26.77 353.94-26.64 354.29-26.51L354.29-26.51 353.65-22.05 350.31-22.24Q348.4-22.36 347.11-21.37 345.81-20.39 345.11-18.73ZM369.15 0.51L369.15 0.51Q365.51 0.51 362.85-1.22L362.85-1.22Q360.19-2.95 358.75-5.98 357.31-9.01 357.31-12.92L357.31-12.92 357.31-13.45Q357.31-17.33 358.75-20.41L358.75-20.41Q360.19-23.46 362.84-25.18 365.49-26.9 369.1-26.9L369.1-26.9Q372.74-26.9 375.43-25.17L375.43-25.17Q378.06-23.44 379.5-20.41 380.94-17.38 380.94-13.45L380.94-13.45 380.94-12.92Q380.94-9.03 379.5-5.96L379.5-5.96Q378.06-2.93 375.43-1.21 372.79 0.51 369.15 0.51ZM369.15-3.25L369.15-3.25Q371.45-3.25 373.01-4.52L373.01-4.52Q374.55-5.76 375.34-7.95 376.13-10.13 376.13-12.92L376.13-12.92 376.13-13.45Q376.13-16.21 375.35-18.43L375.35-18.43Q374.55-20.61 372.98-21.86 371.42-23.12 369.1-23.12L369.1-23.12Q366.83-23.12 365.25-21.88L365.25-21.88Q363.68-20.61 362.9-18.42 362.12-16.24 362.12-13.45L362.12-13.45 362.12-12.92Q362.12-10.16 362.9-7.96L362.9-7.96Q363.68-5.76 365.26-4.5 366.83-3.25 369.15-3.25Z" opacity="1" transform="matrix(1,0,0,1,0,0)" fill="black" class="slogan-text-1" id="SvgjsPath1842"></path></svg></g></svg></g></svg></g></svg></g><g><svg viewBox="0 0 226.04004009420174 226.04004009420174" height="226.04004009420174" width="226.04004009420174"><g><svg></svg></g><g id="SvgjsG1841"><svg viewBox="0 0 226.04004009420174 226.04004009420174" height="226.04004009420174" width="226.04004009420174"><g><path d="M0 113.02c0-62.419 50.601-113.02 113.02-113.02 62.419 0 113.02 50.601 113.02 113.02 0 62.419-50.601 113.02-113.02 113.02-62.419 0-113.02-50.601-113.02-113.02zM113.02 219.205c58.644 0 106.185-47.541 106.185-106.185 0-58.644-47.541-106.185-106.185-106.185-58.644 0-106.185 47.541-106.185 106.185 0 58.644 47.541 106.185 106.185 106.185z" fill="black" stroke="transparent"></path><ellipse rx="111.88981984662986" ry="111.88981984662986" cx="113.02002004710087" cy="113.02002004710087" fill="black" stroke="transparent" stroke-width="0" fill-opacity="1"></ellipse></g><g transform="matrix(1,0,0,1,48.800770925036005,55.849785205974975)"><svg viewBox="0 0 128.43849824412973 114.3404696822518" height="114.3404696822518" width="128.43849824412973"><g><svg version="1.1" xmlns="http://www.w3.org/2000/svg" xmlns:xlink="http://www.w3.org/1999/xlink" x="0" y="0" viewBox="0 0 100 89.02351806147632" enable-background="new 0 0 100 89.14" xml:space="preserve" id="SvgjsSvg1840" width="128.43849824412973" height="114.3404696822518" class="icon-dxe-0" data-fill-palette-color="quaternary"><path fill="black" d="M43.198 52.033A22.4 22.4 0 0 1 56.926 52.078L56.863 19.608H68.627L50.98 0 31.373 19.608H43.138z"></path><path fill="black" d="M72.274 21.568L80.687 29.791 58.446 52.637A22.65 22.65 0 0 1 69.015 61.46L90.505 39.384 98.919 47.607 100 21.568z"></path><path fill="black" d="M41.553 52.637L19.312 29.791 27.726 21.568H0L1.082 47.606 9.496 39.383 30.986 61.46A22.64 22.64 0 0 1 41.553 52.637"></path><circle fill="black" cx="50" cy="73.529" r="16"></circle></svg></g></svg></g></svg></g></svg></g></svg></g><defs><mask></mask></defs></svg><rect width="395.52" height="136.00684723601535" fill="black" stroke="none" visibility="hidden"></rect></g></mask></svg><rect width="395.52" height="136.00684723601535" fill="black" stroke="none" visibility="hidden"></rect></g></mask><linearGradient x1="0.054" x2="0.941" y1="0.5" y2="0.5" id="d4022fa0-2ca5-4b2a-b880-a4344b2a9ecf"><stop stop-color="#26282a" offset="0"></stop><stop stop-color="#9e9fa0" offset="0.498"></stop><stop stop-color="#26282a" offset="1"></stop></linearGradient><rect width="395.52" height="136.00684723601535" fill="url(#d4022fa0-2ca5-4b2a-b880-a4344b2a9ecf)" mask="url(#3c49315b-de4d-4023-aba2-186a5af6bc80)" data-fill-palette-color="secondary"></rect><mask id="b67525fe-0b77-49ba-a45d-b5b8911fcdc5"><g id="SvgjsG1877"><svg viewBox="0 0 395.52 136.00684723601535" height="136.00684723601535" width="395.52"><g><svg viewBox="0 0 657.3445269480828 226.04004009420174" height="136.00684723601535" width="395.52"><g transform="matrix(1,0,0,1,261.82452694808285,54.32846166601243)"><svg viewBox="0 0 395.52 117.38311676217688" height="117.38311676217688" width="395.52"><g id="SvgjsG1876"><svg viewBox="0 0 395.52 117.38311676217688" height="117.38311676217688" width="395.52" id="SvgjsSvg1875"><g><svg viewBox="0 0 395.52 75.79018378378379" height="75.79018378378379" width="395.52"><g transform="matrix(1,0,0,1,0,0)"><svg width="395.52" viewBox="3.95 -35.05 184.98000000000002 35.449999999999996" height="75.79018378378379" data-palette-color="url(#d5c9b54b-4bfb-4e13-8b66-7e435ea1a631)"></svg></g></svg></g><g transform="matrix(1,0,0,1,0,93.68242721072433)"><svg viewBox="0 0 232.209792 23.700689551452548" height="23.700689551452548" width="232.209792"><g transform="matrix(1,0,0,1,0,0)"><svg width="232.209792" viewBox="2.81 -38.09 378.13 38.6" height="23.700689551452548" data-palette-color="url(#d4022fa0-2ca5-4b2a-b880-a4344b2a9ecf)"></svg></g></svg></g></svg></g></svg></g><g><svg viewBox="0 0 226.04004009420174 226.04004009420174" height="226.04004009420174" width="226.04004009420174"><g><svg></svg></g><g id="SvgjsG1874"><svg viewBox="0 0 226.04004009420174 226.04004009420174" height="226.04004009420174" width="226.04004009420174"><g><path d="M0 113.02c0-62.419 50.601-113.02 113.02-113.02 62.419 0 113.02 50.601 113.02 113.02 0 62.419-50.601 113.02-113.02 113.02-62.419 0-113.02-50.601-113.02-113.02zM113.02 219.205c58.644 0 106.185-47.541 106.185-106.185 0-58.644-47.541-106.185-106.185-106.185-58.644 0-106.185 47.541-106.185 106.185 0 58.644 47.541 106.185 106.185 106.185z" fill="white" stroke="transparent"></path><ellipse rx="111.88981984662986" ry="111.88981984662986" cx="113.02002004710087" cy="113.02002004710087" fill="white" stroke="transparent" stroke-width="0" fill-opacity="1"></ellipse></g><g transform="matrix(1,0,0,1,48.800770925036005,55.849785205974975)"><svg viewBox="0 0 128.43849824412973 114.3404696822518" height="114.3404696822518" width="128.43849824412973"><g><svg version="1.1" xmlns="http://www.w3.org/2000/svg" xmlns:xlink="http://www.w3.org/1999/xlink" x="0" y="0" viewBox="0 0 100 89.02351806147632" enable-background="new 0 0 100 89.14" xml:space="preserve" id="SvgjsSvg1873" width="128.43849824412973" height="114.3404696822518" class="icon-dxe-0" data-fill-palette-color="quaternary"><path fill="black" d="M43.198 52.033A22.4 22.4 0 0 1 56.926 52.078L56.863 19.608H68.627L50.98 0 31.373 19.608H43.138z"></path><path fill="black" d="M72.274 21.568L80.687 29.791 58.446 52.637A22.65 22.65 0 0 1 69.015 61.46L90.505 39.384 98.919 47.607 100 21.568z"></path><path fill="black" d="M41.553 52.637L19.312 29.791 27.726 21.568H0L1.082 47.606 9.496 39.383 30.986 61.46A22.64 22.64 0 0 1 41.553 52.637"></path><circle fill="black" cx="50" cy="73.529" r="16"></circle></svg></g></svg></g></svg></g></svg></g></svg></g><defs><mask></mask></defs><mask><g id="SvgjsG1872"><svg viewBox="0 0 395.52 136.00684723601535" height="136.00684723601535" width="395.52"><g><svg viewBox="0 0 657.3445269480828 226.04004009420174" height="136.00684723601535" width="395.52"><g transform="matrix(1,0,0,1,261.82452694808285,54.32846166601243)"><svg viewBox="0 0 395.52 117.38311676217688" height="117.38311676217688" width="395.52"><g id="SvgjsG1871"><svg viewBox="0 0 395.52 117.38311676217688" height="117.38311676217688" width="395.52" id="SvgjsSvg1870"><g><svg viewBox="0 0 395.52 75.79018378378379" height="75.79018378378379" width="395.52"><g transform="matrix(1,0,0,1,0,0)"><svg width="395.52" viewBox="3.95 -35.05 184.98000000000002 35.449999999999996" height="75.79018378378379" data-palette-color="url(#d5c9b54b-4bfb-4e13-8b66-7e435ea1a631)"><path d="M15.15-35.05Q19.15-35.05 21.63-32.38 24.1-29.7 24.1-25.3L24.1-25.3Q24.1-20.95 21.63-18.32 19.15-15.7 15.15-15.7L15.15-15.7 7.7-15.7Q7.5-15.7 7.5-15.5L7.5-15.5 7.5-0.5Q7.5 0 7 0L7 0 4.45 0Q3.95 0 3.95-0.5L3.95-0.5 3.95-34.55Q3.95-35.05 4.45-35.05L4.45-35.05 15.15-35.05ZM14.7-18.65Q17.35-18.65 18.95-20.45 20.55-22.25 20.55-25.25L20.55-25.25Q20.55-28.3 18.95-30.13 17.35-31.95 14.7-31.95L14.7-31.95 7.7-31.95Q7.5-31.95 7.5-31.75L7.5-31.75 7.5-18.85Q7.5-18.65 7.7-18.65L7.7-18.65 14.7-18.65ZM36.05 0.4Q31.6 0.4 28.92-2.2 26.25-4.8 26.25-9.05L26.25-9.05 26.25-13.05Q26.25-13.55 26.75-13.55L26.75-13.55 29.3-13.55Q29.8-13.55 29.8-13.05L29.8-13.05 29.8-9Q29.8-6.15 31.5-4.42 33.2-2.7 36.05-2.7L36.05-2.7Q38.85-2.7 40.6-4.45 42.35-6.2 42.35-9L42.35-9 42.35-34.5Q42.35-35 42.85-35L42.85-35 45.35-35Q45.85-35 45.85-34.5L45.85-34.5 45.85-9.05Q45.85-4.8 43.15-2.2 40.45 0.4 36.05 0.4L36.05 0.4ZM73.64-23Q73.64-22.5 73.14-22.5L73.14-22.5 68.39-22.5Q68.19-22.5 68.19-22.3L68.19-22.3 68.19-7.3Q68.19-4.95 69.12-4.03 70.04-3.1 72.09-3.1L72.09-3.1 72.94-3.1Q73.44-3.1 73.44-2.6L73.44-2.6 73.44-0.5Q73.44 0 72.94 0L72.94 0 71.39 0.05Q68.14 0.05 66.44-1.28 64.74-2.6 64.74-6.2L64.74-6.2 64.74-22.3Q64.74-22.5 64.54-22.5L64.54-22.5 62.04-22.5Q61.54-22.5 61.54-23L61.54-23 61.54-24.8Q61.54-25.3 62.04-25.3L62.04-25.3 64.54-25.3Q64.74-25.3 64.74-25.5L64.74-25.5 64.74-31.2Q64.74-31.7 65.24-31.7L65.24-31.7 67.69-31.7Q68.19-31.7 68.19-31.2L68.19-31.2 68.19-25.5Q68.19-25.3 68.39-25.3L68.39-25.3 73.14-25.3Q73.64-25.3 73.64-24.8L73.64-24.8 73.64-23ZM83.89 0Q83.44 0 83.34-0.45L83.34-0.45 77.19-24.75 77.14-24.95Q77.14-25.3 77.59-25.3L77.59-25.3 80.09-25.3Q80.54-25.3 80.64-24.85L80.64-24.85 85.14-5.65Q85.19-5.5 85.24-5.5 85.29-5.5 85.34-5.65L85.34-5.65 89.89-24.85Q89.99-25.3 90.44-25.3L90.44-25.3 92.74-25.3Q93.24-25.3 93.29-24.85L93.29-24.85 97.94-5.7Q97.99-5.55 98.04-5.55 98.09-5.55 98.14-5.7L98.14-5.7 102.69-24.85Q102.79-25.3 103.24-25.3L103.24-25.3 105.79-25.25Q106.04-25.25 106.17-25.1 106.29-24.95 106.19-24.7L106.19-24.7 99.94-0.45Q99.89 0 99.39 0L99.39 0 96.79 0Q96.34 0 96.24-0.45L96.24-0.45 91.69-18.95Q91.64-19.1 91.57-19.1 91.49-19.1 91.44-18.95L91.44-18.95 87.04-0.45Q86.94 0 86.49 0L86.49 0 83.89 0ZM119.09-2.7Q120.99-2.7 122.36-3.68 123.74-4.65 124.34-6.3L124.34-6.3Q124.49-6.75 124.94-6.65L124.94-6.65 127.24-6.2Q127.49-6.15 127.56-5.98 127.64-5.8 127.59-5.6L127.59-5.6Q126.74-2.8 124.49-1.2 122.24 0.4 119.04 0.4L119.04 0.4Q115.39 0.4 113.09-1.53 110.79-3.45 110.24-6.75L110.24-6.75Q110.04-8 109.99-9.7 109.94-11.4 109.94-12.53 109.94-13.65 109.94-14.1L109.94-14.1Q109.94-16.65 110.14-18.25L110.14-18.25Q110.54-21.6 112.91-23.65 115.29-25.7 118.89-25.7L118.89-25.7Q122.74-25.7 125.14-23.5 127.54-21.3 127.84-17.7L127.84-17.7Q127.99-16.05 127.99-11.65L127.99-11.65Q127.99-11.15 127.49-11.15L127.49-11.15 113.69-11.15Q113.49-11.15 113.49-10.95L113.49-10.95Q113.49-9.4 113.59-7.5L113.59-7.5Q113.84-5.35 115.31-4.03 116.79-2.7 119.09-2.7L119.09-2.7ZM118.94-22.6Q116.69-22.6 115.26-21.28 113.84-19.95 113.59-17.8L113.59-17.8Q113.49-15.7 113.49-14.3L113.49-14.3Q113.49-14.1 113.69-14.1L113.69-14.1 124.24-14.1Q124.44-14.1 124.44-14.3L124.44-14.3Q124.44-15.75 124.24-17.75L124.24-17.75Q123.99-19.9 122.56-21.25 121.14-22.6 118.94-22.6L118.94-22.6ZM142.59-2.7Q144.49-2.7 145.86-3.68 147.24-4.65 147.84-6.3L147.84-6.3Q147.99-6.75 148.44-6.65L148.44-6.65 150.74-6.2Q150.99-6.15 151.06-5.98 151.14-5.8 151.09-5.6L151.09-5.6Q150.24-2.8 147.99-1.2 145.74 0.4 142.54 0.4L142.54 0.4Q138.89 0.4 136.59-1.53 134.29-3.45 133.74-6.75L133.74-6.75Q133.54-8 133.49-9.7 133.44-11.4 133.44-12.53 133.44-13.65 133.44-14.1L133.44-14.1Q133.44-16.65 133.64-18.25L133.64-18.25Q134.04-21.6 136.41-23.65 138.79-25.7 142.39-25.7L142.39-25.7Q146.24-25.7 148.64-23.5 151.04-21.3 151.34-17.7L151.34-17.7Q151.49-16.05 151.49-11.65L151.49-11.65Q151.49-11.15 150.99-11.15L150.99-11.15 137.19-11.15Q136.99-11.15 136.99-10.95L136.99-10.95Q136.99-9.4 137.09-7.5L137.09-7.5Q137.34-5.35 138.81-4.03 140.29-2.7 142.59-2.7L142.59-2.7ZM142.44-22.6Q140.19-22.6 138.76-21.28 137.34-19.95 137.09-17.8L137.09-17.8Q136.99-15.7 136.99-14.3L136.99-14.3Q136.99-14.1 137.19-14.1L137.19-14.1 147.74-14.1Q147.94-14.1 147.94-14.3L147.94-14.3Q147.94-15.75 147.74-17.75L147.74-17.75Q147.49-19.9 146.06-21.25 144.64-22.6 142.44-22.6L142.44-22.6ZM167.43-23Q167.43-22.5 166.93-22.5L166.93-22.5 162.18-22.5Q161.98-22.5 161.98-22.3L161.98-22.3 161.98-7.3Q161.98-4.95 162.91-4.03 163.83-3.1 165.88-3.1L165.88-3.1 166.73-3.1Q167.23-3.1 167.23-2.6L167.23-2.6 167.23-0.5Q167.23 0 166.73 0L166.73 0 165.18 0.05Q161.93 0.05 160.23-1.28 158.53-2.6 158.53-6.2L158.53-6.2 158.53-22.3Q158.53-22.5 158.33-22.5L158.33-22.5 155.83-22.5Q155.33-22.5 155.33-23L155.33-23 155.33-24.8Q155.33-25.3 155.83-25.3L155.83-25.3 158.33-25.3Q158.53-25.3 158.53-25.5L158.53-25.5 158.53-31.2Q158.53-31.7 159.03-31.7L159.03-31.7 161.48-31.7Q161.98-31.7 161.98-31.2L161.98-31.2 161.98-25.5Q161.98-25.3 162.18-25.3L162.18-25.3 166.93-25.3Q167.43-25.3 167.43-24.8L167.43-24.8 167.43-23ZM180.48 0.25Q176.63 0.25 174.28-1.6 171.93-3.45 171.93-6.35L171.93-6.35 171.93-6.8Q171.93-7.3 172.43-7.3L172.43-7.3 174.88-7.3Q175.38-7.3 175.38-6.8L175.38-6.8 175.38-6.45Q175.38-4.85 176.81-3.68 178.23-2.5 180.48-2.5L180.48-2.5Q182.68-2.5 184.03-3.65 185.38-4.8 185.38-6.55L185.38-6.55Q185.38-7.8 184.63-8.65 183.88-9.5 182.78-10 181.68-10.5 179.73-11.15L179.73-11.15Q177.38-11.95 175.83-12.75 174.28-13.55 173.21-14.98 172.13-16.4 172.13-18.6L172.13-18.6Q172.13-21.8 174.38-23.68 176.63-25.55 180.33-25.55L180.33-25.55Q184.13-25.55 186.41-23.6 188.68-21.65 188.68-18.6L188.68-18.6 188.68-18.5Q188.68-18 188.18-18L188.18-18 185.88-18Q185.38-18 185.38-18.5L185.38-18.5 185.38-18.7Q185.38-20.4 184.01-21.53 182.63-22.65 180.33-22.65L180.33-22.65Q178.18-22.65 176.86-21.58 175.53-20.5 175.53-18.8L175.53-18.8Q175.53-17.05 176.86-16.15 178.18-15.25 181.03-14.25L181.03-14.25Q183.48-13.45 185.08-12.65 186.68-11.85 187.81-10.43 188.93-9 188.93-6.75L188.93-6.75Q188.93-3.55 186.63-1.65 184.33 0.25 180.48 0.25L180.48 0.25Z" opacity="1" transform="matrix(1,0,0,1,0,0)" fill="black" class="wordmark-text-0" id="SvgjsPath1869"></path></svg></g></svg></g><g transform="matrix(1,0,0,1,0,93.68242721072433)"><svg viewBox="0 0 232.209792 23.700689551452548" height="23.700689551452548" width="232.209792"><g transform="matrix(1,0,0,1,0,0)"><svg width="232.209792" viewBox="2.81 -38.09 378.13 38.6" height="23.700689551452548" data-palette-color="url(#d4022fa0-2ca5-4b2a-b880-a4344b2a9ecf)"><path d="M14.79 0.51L14.79 0.51Q11.55 0.51 8.54-0.44 5.54-1.39 2.81-3.37L2.81-3.37 2.81-10.96 6.54-10.96 7.35-5.37Q8.94-4.39 10.79-3.86 12.65-3.32 14.79-3.32L14.79-3.32Q17.26-3.32 18.95-4.08L18.95-4.08Q22.44-5.59 22.44-9.2L22.44-9.2Q22.44-10.82 21.66-12.08L21.66-12.08Q20.87-13.33 19.08-14.27 17.29-15.21 14.18-15.92L14.18-15.92Q10.62-16.75 8.01-18.21L8.01-18.21Q2.86-21.12 2.86-26.34L2.86-26.34Q2.86-29.15 4.35-31.32L4.35-31.32Q5.81-33.52 8.45-34.79 11.08-36.06 14.6-36.06L14.6-36.06Q18.33-36.06 21.2-34.92 24.07-33.79 25.93-32.18L25.93-32.18 25.93-25.07 22.19-25.07 21.39-30.15Q20.29-31.03 18.65-31.62 17.02-32.2 14.6-32.2L14.6-32.2Q12.6-32.2 10.99-31.49L10.99-31.49Q9.42-30.76 8.54-29.47 7.67-28.17 7.67-26.42L7.67-26.42Q7.67-24.88 8.47-23.73L8.47-23.73Q9.94-21.56 15.84-20.09L15.84-20.09Q27.25-17.26 27.25-9.25L27.25-9.25Q27.25-6.4 25.71-4.2L25.71-4.2Q24.17-1.98 21.37-0.73 18.58 0.51 14.79 0.51ZM39.43-19.51L39.43-19.51 39.43-3.76 43.41-3.08 43.41 0 30.64 0 30.64-3.08 34.62-3.76 34.62-34.3 30.64-34.99 30.64-38.09 39.43-38.09 39.43-22.9Q40.79-24.8 42.77-25.85 44.75-26.9 47.17-26.9L47.17-26.9Q51.41-26.9 53.76-24.37 56.1-21.83 56.1-16.55L56.1-16.55 56.1-3.76 60.08-3.08 60.08 0 47.31 0 47.31-3.08 51.29-3.76 51.29-16.6Q51.29-23 45.7-23L45.7-23Q43.72-23 42.1-22.06 40.48-21.12 39.43-19.51ZM71.89 0.51L71.89 0.51Q67.77 0.51 65.62-1.5 63.47-3.52 63.47-7.18L63.47-7.18Q63.47-9.72 64.86-11.57L64.86-11.57Q66.23-13.45 68.84-14.48 71.45-15.5 75.09-15.5L75.09-15.5 79.8-15.5 79.8-18.09Q79.8-20.48 78.35-21.8 76.9-23.12 74.26-23.12L74.26-23.12Q72.6-23.12 71.38-22.72 70.16-22.31 69.16-21.61L69.16-21.61 68.65-17.92 64.94-17.92 64.94-23.97Q68.53-26.9 74.34-26.9L74.34-26.9Q79.15-26.9 81.88-24.61 84.61-22.31 84.61-18.04L84.61-18.04 84.61-5.32Q84.61-4.81 84.63-4.32 84.64-3.83 84.69-3.34L84.69-3.34 87.25-3.08 87.25 0 80.34 0Q79.93-2 79.83-3.64L79.83-3.64Q78.44-1.86 76.35-0.67 74.26 0.51 71.89 0.51ZM72.6-3.52L72.6-3.52Q75-3.52 76.97-4.66 78.95-5.81 79.8-7.42L79.8-7.42 79.8-12.21 74.92-12.21Q71.6-12.21 69.94-10.62 68.28-9.03 68.28-7.08L68.28-7.08Q68.28-3.52 72.6-3.52ZM99.72-18.73L99.72-18.73 99.72-3.76 103.7-3.08 103.7 0 90.93 0 90.93-3.08 94.91-3.76 94.91-22.63 90.93-23.32 90.93-26.42 99.21-26.42 99.63-23.05 99.68-22.58Q100.8-24.61 102.45-25.76 104.09-26.9 106.22-26.9L106.22-26.9Q106.97-26.9 107.77-26.77 108.56-26.64 108.9-26.51L108.9-26.51 108.27-22.05 104.92-22.24Q103.02-22.36 101.73-21.37 100.43-20.39 99.72-18.73ZM123.87 0.51L123.87 0.51Q120.2 0.51 117.49-1.17L117.49-1.17Q114.78-2.83 113.31-5.81 111.83-8.79 111.83-12.7L111.83-12.7 111.83-13.77Q111.83-17.55 113.39-20.51L113.39-20.51Q114.93-23.49 117.51-25.2 120.08-26.9 123.13-26.9L123.13-26.9Q126.7-26.9 129.12-25.44L129.12-25.44Q131.51-23.97 132.73-21.33 133.95-18.68 133.95-15.09L133.95-15.09 133.95-12.08 116.81-12.08 116.74-11.96Q116.76-9.47 117.64-7.47L117.64-7.47Q118.5-5.49 120.07-4.37 121.65-3.25 123.87-3.25L123.87-3.25Q126.31-3.25 128.15-3.94 129.99-4.64 131.34-5.86L131.34-5.86 133.22-2.73Q131.8-1.37 129.47-0.43 127.14 0.51 123.87 0.51ZM116.91-15.97L116.91-15.97 116.96-15.84 129.14-15.84 129.14-16.48Q129.14-18.41 128.48-19.9L128.48-19.9Q127.8-21.41 126.47-22.27 125.14-23.12 123.13-23.12L123.13-23.12Q121.55-23.12 120.2-22.19L120.2-22.19Q117.47-20.21 116.91-15.97ZM154.53-3.08L158.51-3.76 158.51-34.3 154.53-34.99 154.53-38.09 163.32-38.09 163.32-3.76 167.29-3.08 167.29 0 154.53 0 154.53-3.08ZM179.33-32.93L174.27-32.93 174.27-38.09 179.33-38.09 179.33-32.93ZM170.54-3.08L174.52-3.76 174.52-22.63 170.54-23.32 170.54-26.42 179.33-26.42 179.33-3.76 183.31-3.08 183.31 0 170.54 0 170.54-3.08ZM204.52-22.85L204.64-23 201.81-23.32 201.81-26.42 213.19-26.42 213.19-23.32 209.79-22.68 202.37-15.21 211.48-3.66 215.29-3.08 215.29 0 203.35 0 203.35-3.08 206.03-3.39 205.96-3.49 199.27-12.11 195.17-7.98 195.17-3.76 199.15-3.08 199.15 0 186.38 0 186.38-3.08 190.36-3.76 190.36-34.3 186.38-34.99 186.38-38.09 195.17-38.09 195.17-13.55 204.52-22.85ZM229.08 0.51L229.08 0.51Q225.42 0.51 222.71-1.17L222.71-1.17Q220-2.83 218.52-5.81 217.04-8.79 217.04-12.7L217.04-12.7 217.04-13.77Q217.04-17.55 218.61-20.51L218.61-20.51Q220.14-23.49 222.72-25.2 225.29-26.9 228.35-26.9L228.35-26.9Q231.91-26.9 234.33-25.44L234.33-25.44Q236.72-23.97 237.94-21.33 239.16-18.68 239.16-15.09L239.16-15.09 239.16-12.08 222.02-12.08 221.95-11.96Q221.97-9.47 222.85-7.47L222.85-7.47Q223.71-5.49 225.28-4.37 226.86-3.25 229.08-3.25L229.08-3.25Q231.52-3.25 233.36-3.94 235.21-4.64 236.55-5.86L236.55-5.86 238.43-2.73Q237.01-1.37 234.68-0.43 232.35 0.51 229.08 0.51ZM222.12-15.97L222.12-15.97 222.17-15.84 234.35-15.84 234.35-16.48Q234.35-18.41 233.69-19.9L233.69-19.9Q233.01-21.41 231.68-22.27 230.35-23.12 228.35-23.12L228.35-23.12Q226.76-23.12 225.42-22.19L225.42-22.19Q222.68-20.21 222.12-15.97ZM268.53 0.51L268.53 0.51Q264.4 0.51 262.25-1.5 260.1-3.52 260.1-7.18L260.1-7.18Q260.1-9.72 261.5-11.57L261.5-11.57Q262.86-13.45 265.48-14.48 268.09-15.5 271.73-15.5L271.73-15.5 276.44-15.5 276.44-18.09Q276.44-20.48 274.98-21.8 273.53-23.12 270.9-23.12L270.9-23.12Q269.24-23.12 268.01-22.72 266.79-22.31 265.79-21.61L265.79-21.61 265.28-17.92 261.57-17.92 261.57-23.97Q265.16-26.9 270.97-26.9L270.97-26.9Q275.78-26.9 278.51-24.61 281.25-22.31 281.25-18.04L281.25-18.04 281.25-5.32Q281.25-4.81 281.26-4.32 281.27-3.83 281.32-3.34L281.32-3.34 283.88-3.08 283.88 0 276.97 0Q276.56-2 276.46-3.64L276.46-3.64Q275.07-1.86 272.98-0.67 270.9 0.51 268.53 0.51ZM269.24-3.52L269.24-3.52Q271.63-3.52 273.61-4.66 275.58-5.81 276.44-7.42L276.44-7.42 276.44-12.21 271.55-12.21Q268.23-12.21 266.57-10.62 264.91-9.03 264.91-7.08L264.91-7.08Q264.91-3.52 269.24-3.52ZM321.21-14.26L321.21-14.26 313.66-14.26 313.66-3.76 317.64-3.08 317.64 0 304.87 0 304.87-3.08 308.85-3.76 308.85-31.76 304.87-32.45 304.87-35.55 321.21-35.55Q325.04-35.55 327.7-34.23L327.7-34.23Q333.22-31.49 333.22-24.9L333.22-24.9Q333.22-21.66 331.8-19.29L331.8-19.29Q330.39-16.89 327.7-15.58 325.02-14.26 321.21-14.26ZM321.21-31.76L321.21-31.76 313.66-31.76 313.66-18.02 321.21-18.02Q324.82-18.02 326.62-19.96 328.41-21.9 328.41-24.85L328.41-24.85Q328.41-27.81 326.62-29.79 324.82-31.76 321.21-31.76ZM345.11-18.73L345.11-18.73 345.11-3.76 349.09-3.08 349.09 0 336.32 0 336.32-3.08 340.3-3.76 340.3-22.63 336.32-23.32 336.32-26.42 344.59-26.42 345.01-23.05 345.06-22.58Q346.18-24.61 347.83-25.76 349.48-26.9 351.6-26.9L351.6-26.9Q352.36-26.9 353.15-26.77 353.94-26.64 354.29-26.51L354.29-26.51 353.65-22.05 350.31-22.24Q348.4-22.36 347.11-21.37 345.81-20.39 345.11-18.73ZM369.15 0.51L369.15 0.51Q365.51 0.51 362.85-1.22L362.85-1.22Q360.19-2.95 358.75-5.98 357.31-9.01 357.31-12.92L357.31-12.92 357.31-13.45Q357.31-17.33 358.75-20.41L358.75-20.41Q360.19-23.46 362.84-25.18 365.49-26.9 369.1-26.9L369.1-26.9Q372.74-26.9 375.43-25.17L375.43-25.17Q378.06-23.44 379.5-20.41 380.94-17.38 380.94-13.45L380.94-13.45 380.94-12.92Q380.94-9.03 379.5-5.96L379.5-5.96Q378.06-2.93 375.43-1.21 372.79 0.51 369.15 0.51ZM369.15-3.25L369.15-3.25Q371.45-3.25 373.01-4.52L373.01-4.52Q374.55-5.76 375.34-7.95 376.13-10.13 376.13-12.92L376.13-12.92 376.13-13.45Q376.13-16.21 375.35-18.43L375.35-18.43Q374.55-20.61 372.98-21.86 371.42-23.12 369.1-23.12L369.1-23.12Q366.83-23.12 365.25-21.88L365.25-21.88Q363.68-20.61 362.9-18.42 362.12-16.24 362.12-13.45L362.12-13.45 362.12-12.92Q362.12-10.16 362.9-7.96L362.9-7.96Q363.68-5.76 365.26-4.5 366.83-3.25 369.15-3.25Z" opacity="1" transform="matrix(1,0,0,1,0,0)" fill="black" class="slogan-text-1" id="SvgjsPath1868"></path></svg></g></svg></g></svg></g></svg></g><g><svg viewBox="0 0 226.04004009420174 226.04004009420174" height="226.04004009420174" width="226.04004009420174"><g><svg></svg></g><g id="SvgjsG1867"><svg viewBox="0 0 226.04004009420174 226.04004009420174" height="226.04004009420174" width="226.04004009420174"><g><path d="M0 113.02c0-62.419 50.601-113.02 113.02-113.02 62.419 0 113.02 50.601 113.02 113.02 0 62.419-50.601 113.02-113.02 113.02-62.419 0-113.02-50.601-113.02-113.02zM113.02 219.205c58.644 0 106.185-47.541 106.185-106.185 0-58.644-47.541-106.185-106.185-106.185-58.644 0-106.185 47.541-106.185 106.185 0 58.644 47.541 106.185 106.185 106.185z" fill="black" stroke="transparent"></path><ellipse rx="111.88981984662986" ry="111.88981984662986" cx="113.02002004710087" cy="113.02002004710087" fill="black" stroke="transparent" stroke-width="0" fill-opacity="1"></ellipse></g><g transform="matrix(1,0,0,1,48.800770925036005,55.849785205974975)"><svg viewBox="0 0 128.43849824412973 114.3404696822518" height="114.3404696822518" width="128.43849824412973"><g><svg version="1.1" xmlns="http://www.w3.org/2000/svg" xmlns:xlink="http://www.w3.org/1999/xlink" x="0" y="0" viewBox="0 0 100 89.02351806147632" enable-background="new 0 0 100 89.14" xml:space="preserve" id="SvgjsSvg1866" width="128.43849824412973" height="114.3404696822518" class="icon-dxe-0" data-fill-palette-color="quaternary"><path fill="black" d="M43.198 52.033A22.4 22.4 0 0 1 56.926 52.078L56.863 19.608H68.627L50.98 0 31.373 19.608H43.138z"></path><path fill="black" d="M72.274 21.568L80.687 29.791 58.446 52.637A22.65 22.65 0 0 1 69.015 61.46L90.505 39.384 98.919 47.607 100 21.568z"></path><path fill="black" d="M41.553 52.637L19.312 29.791 27.726 21.568H0L1.082 47.606 9.496 39.383 30.986 61.46A22.64 22.64 0 0 1 41.553 52.637"></path><circle fill="black" cx="50" cy="73.529" r="16"></circle></svg></g></svg></g></svg></g></svg></g></svg></g><defs><mask></mask></defs></svg><rect width="395.52" height="136.00684723601535" fill="black" stroke="none" visibility="hidden"></rect></g></mask><mask><g id="SvgjsG1865"><svg viewBox="0 0 395.52 136.00684723601535" height="136.00684723601535" width="395.52"><g><svg viewBox="0 0 657.3445269480828 226.04004009420174" height="136.00684723601535" width="395.52"><g transform="matrix(1,0,0,1,261.82452694808285,54.32846166601243)"><svg viewBox="0 0 395.52 117.38311676217688" height="117.38311676217688" width="395.52"><g id="SvgjsG1864"><svg viewBox="0 0 395.52 117.38311676217688" height="117.38311676217688" width="395.52" id="SvgjsSvg1863"><g><svg viewBox="0 0 395.52 75.79018378378379" height="75.79018378378379" width="395.52"><g transform="matrix(1,0,0,1,0,0)"><svg width="395.52" viewBox="3.95 -35.05 184.98000000000002 35.449999999999996" height="75.79018378378379" data-palette-color="url(#d5c9b54b-4bfb-4e13-8b66-7e435ea1a631)"></svg></g></svg></g><g transform="matrix(1,0,0,1,0,93.68242721072433)"><svg viewBox="0 0 232.209792 23.700689551452548" height="23.700689551452548" width="232.209792"><g transform="matrix(1,0,0,1,0,0)"><svg width="232.209792" viewBox="2.81 -38.09 378.13 38.6" height="23.700689551452548" data-palette-color="url(#d4022fa0-2ca5-4b2a-b880-a4344b2a9ecf)"><path d="M14.79 0.51L14.79 0.51Q11.55 0.51 8.54-0.44 5.54-1.39 2.81-3.37L2.81-3.37 2.81-10.96 6.54-10.96 7.35-5.37Q8.94-4.39 10.79-3.86 12.65-3.32 14.79-3.32L14.79-3.32Q17.26-3.32 18.95-4.08L18.95-4.08Q22.44-5.59 22.44-9.2L22.44-9.2Q22.44-10.82 21.66-12.08L21.66-12.08Q20.87-13.33 19.08-14.27 17.29-15.21 14.18-15.92L14.18-15.92Q10.62-16.75 8.01-18.21L8.01-18.21Q2.86-21.12 2.86-26.34L2.86-26.34Q2.86-29.15 4.35-31.32L4.35-31.32Q5.81-33.52 8.45-34.79 11.08-36.06 14.6-36.06L14.6-36.06Q18.33-36.06 21.2-34.92 24.07-33.79 25.93-32.18L25.93-32.18 25.93-25.07 22.19-25.07 21.39-30.15Q20.29-31.03 18.65-31.62 17.02-32.2 14.6-32.2L14.6-32.2Q12.6-32.2 10.99-31.49L10.99-31.49Q9.42-30.76 8.54-29.47 7.67-28.17 7.67-26.42L7.67-26.42Q7.67-24.88 8.47-23.73L8.47-23.73Q9.94-21.56 15.84-20.09L15.84-20.09Q27.25-17.26 27.25-9.25L27.25-9.25Q27.25-6.4 25.71-4.2L25.71-4.2Q24.17-1.98 21.37-0.73 18.58 0.51 14.79 0.51ZM39.43-19.51L39.43-19.51 39.43-3.76 43.41-3.08 43.41 0 30.64 0 30.64-3.08 34.62-3.76 34.62-34.3 30.64-34.99 30.64-38.09 39.43-38.09 39.43-22.9Q40.79-24.8 42.77-25.85 44.75-26.9 47.17-26.9L47.17-26.9Q51.41-26.9 53.76-24.37 56.1-21.83 56.1-16.55L56.1-16.55 56.1-3.76 60.08-3.08 60.08 0 47.31 0 47.31-3.08 51.29-3.76 51.29-16.6Q51.29-23 45.7-23L45.7-23Q43.72-23 42.1-22.06 40.48-21.12 39.43-19.51ZM71.89 0.51L71.89 0.51Q67.77 0.51 65.62-1.5 63.47-3.52 63.47-7.18L63.47-7.18Q63.47-9.72 64.86-11.57L64.86-11.57Q66.23-13.45 68.84-14.48 71.45-15.5 75.09-15.5L75.09-15.5 79.8-15.5 79.8-18.09Q79.8-20.48 78.35-21.8 76.9-23.12 74.26-23.12L74.26-23.12Q72.6-23.12 71.38-22.72 70.16-22.31 69.16-21.61L69.16-21.61 68.65-17.92 64.94-17.92 64.94-23.97Q68.53-26.9 74.34-26.9L74.34-26.9Q79.15-26.9 81.88-24.61 84.61-22.31 84.61-18.04L84.61-18.04 84.61-5.32Q84.61-4.81 84.63-4.32 84.64-3.83 84.69-3.34L84.69-3.34 87.25-3.08 87.25 0 80.34 0Q79.93-2 79.83-3.64L79.83-3.64Q78.44-1.86 76.35-0.67 74.26 0.51 71.89 0.51ZM72.6-3.52L72.6-3.52Q75-3.52 76.97-4.66 78.95-5.81 79.8-7.42L79.8-7.42 79.8-12.21 74.92-12.21Q71.6-12.21 69.94-10.62 68.28-9.03 68.28-7.08L68.28-7.08Q68.28-3.52 72.6-3.52ZM99.72-18.73L99.72-18.73 99.72-3.76 103.7-3.08 103.7 0 90.93 0 90.93-3.08 94.91-3.76 94.91-22.63 90.93-23.32 90.93-26.42 99.21-26.42 99.63-23.05 99.68-22.58Q100.8-24.61 102.45-25.76 104.09-26.9 106.22-26.9L106.22-26.9Q106.97-26.9 107.77-26.77 108.56-26.64 108.9-26.51L108.9-26.51 108.27-22.05 104.92-22.24Q103.02-22.36 101.73-21.37 100.43-20.39 99.72-18.73ZM123.87 0.51L123.87 0.51Q120.2 0.51 117.49-1.17L117.49-1.17Q114.78-2.83 113.31-5.81 111.83-8.79 111.83-12.7L111.83-12.7 111.83-13.77Q111.83-17.55 113.39-20.51L113.39-20.51Q114.93-23.49 117.51-25.2 120.08-26.9 123.13-26.9L123.13-26.9Q126.7-26.9 129.12-25.44L129.12-25.44Q131.51-23.97 132.73-21.33 133.95-18.68 133.95-15.09L133.95-15.09 133.95-12.08 116.81-12.08 116.74-11.96Q116.76-9.47 117.64-7.47L117.64-7.47Q118.5-5.49 120.07-4.37 121.65-3.25 123.87-3.25L123.87-3.25Q126.31-3.25 128.15-3.94 129.99-4.64 131.34-5.86L131.34-5.86 133.22-2.73Q131.8-1.37 129.47-0.43 127.14 0.51 123.87 0.51ZM116.91-15.97L116.91-15.97 116.96-15.84 129.14-15.84 129.14-16.48Q129.14-18.41 128.48-19.9L128.48-19.9Q127.8-21.41 126.47-22.27 125.14-23.12 123.13-23.12L123.13-23.12Q121.55-23.12 120.2-22.19L120.2-22.19Q117.47-20.21 116.91-15.97ZM154.53-3.08L158.51-3.76 158.51-34.3 154.53-34.99 154.53-38.09 163.32-38.09 163.32-3.76 167.29-3.08 167.29 0 154.53 0 154.53-3.08ZM179.33-32.93L174.27-32.93 174.27-38.09 179.33-38.09 179.33-32.93ZM170.54-3.08L174.52-3.76 174.52-22.63 170.54-23.32 170.54-26.42 179.33-26.42 179.33-3.76 183.31-3.08 183.31 0 170.54 0 170.54-3.08ZM204.52-22.85L204.64-23 201.81-23.32 201.81-26.42 213.19-26.42 213.19-23.32 209.79-22.68 202.37-15.21 211.48-3.66 215.29-3.08 215.29 0 203.35 0 203.35-3.08 206.03-3.39 205.96-3.49 199.27-12.11 195.17-7.98 195.17-3.76 199.15-3.08 199.15 0 186.38 0 186.38-3.08 190.36-3.76 190.36-34.3 186.38-34.99 186.38-38.09 195.17-38.09 195.17-13.55 204.52-22.85ZM229.08 0.51L229.08 0.51Q225.42 0.51 222.71-1.17L222.71-1.17Q220-2.83 218.52-5.81 217.04-8.79 217.04-12.7L217.04-12.7 217.04-13.77Q217.04-17.55 218.61-20.51L218.61-20.51Q220.14-23.49 222.72-25.2 225.29-26.9 228.35-26.9L228.35-26.9Q231.91-26.9 234.33-25.44L234.33-25.44Q236.72-23.97 237.94-21.33 239.16-18.68 239.16-15.09L239.16-15.09 239.16-12.08 222.02-12.08 221.95-11.96Q221.97-9.47 222.85-7.47L222.85-7.47Q223.71-5.49 225.28-4.37 226.86-3.25 229.08-3.25L229.08-3.25Q231.52-3.25 233.36-3.94 235.21-4.64 236.55-5.86L236.55-5.86 238.43-2.73Q237.01-1.37 234.68-0.43 232.35 0.51 229.08 0.51ZM222.12-15.97L222.12-15.97 222.17-15.84 234.35-15.84 234.35-16.48Q234.35-18.41 233.69-19.9L233.69-19.9Q233.01-21.41 231.68-22.27 230.35-23.12 228.35-23.12L228.35-23.12Q226.76-23.12 225.42-22.19L225.42-22.19Q222.68-20.21 222.12-15.97ZM268.53 0.51L268.53 0.51Q264.4 0.51 262.25-1.5 260.1-3.52 260.1-7.18L260.1-7.18Q260.1-9.72 261.5-11.57L261.5-11.57Q262.86-13.45 265.48-14.48 268.09-15.5 271.73-15.5L271.73-15.5 276.44-15.5 276.44-18.09Q276.44-20.48 274.98-21.8 273.53-23.12 270.9-23.12L270.9-23.12Q269.24-23.12 268.01-22.72 266.79-22.31 265.79-21.61L265.79-21.61 265.28-17.92 261.57-17.92 261.57-23.97Q265.16-26.9 270.97-26.9L270.97-26.9Q275.78-26.9 278.51-24.61 281.25-22.31 281.25-18.04L281.25-18.04 281.25-5.32Q281.25-4.81 281.26-4.32 281.27-3.83 281.32-3.34L281.32-3.34 283.88-3.08 283.88 0 276.97 0Q276.56-2 276.46-3.64L276.46-3.64Q275.07-1.86 272.98-0.67 270.9 0.51 268.53 0.51ZM269.24-3.52L269.24-3.52Q271.63-3.52 273.61-4.66 275.58-5.81 276.44-7.42L276.44-7.42 276.44-12.21 271.55-12.21Q268.23-12.21 266.57-10.62 264.91-9.03 264.91-7.08L264.91-7.08Q264.91-3.52 269.24-3.52ZM321.21-14.26L321.21-14.26 313.66-14.26 313.66-3.76 317.64-3.08 317.64 0 304.87 0 304.87-3.08 308.85-3.76 308.85-31.76 304.87-32.45 304.87-35.55 321.21-35.55Q325.04-35.55 327.7-34.23L327.7-34.23Q333.22-31.49 333.22-24.9L333.22-24.9Q333.22-21.66 331.8-19.29L331.8-19.29Q330.39-16.89 327.7-15.58 325.02-14.26 321.21-14.26ZM321.21-31.76L321.21-31.76 313.66-31.76 313.66-18.02 321.21-18.02Q324.82-18.02 326.62-19.96 328.41-21.9 328.41-24.85L328.41-24.85Q328.41-27.81 326.62-29.79 324.82-31.76 321.21-31.76ZM345.11-18.73L345.11-18.73 345.11-3.76 349.09-3.08 349.09 0 336.32 0 336.32-3.08 340.3-3.76 340.3-22.63 336.32-23.32 336.32-26.42 344.59-26.42 345.01-23.05 345.06-22.58Q346.18-24.61 347.83-25.76 349.48-26.9 351.6-26.9L351.6-26.9Q352.36-26.9 353.15-26.77 353.94-26.64 354.29-26.51L354.29-26.51 353.65-22.05 350.31-22.24Q348.4-22.36 347.11-21.37 345.81-20.39 345.11-18.73ZM369.15 0.51L369.15 0.51Q365.51 0.51 362.85-1.22L362.85-1.22Q360.19-2.95 358.75-5.98 357.31-9.01 357.31-12.92L357.31-12.92 357.31-13.45Q357.31-17.33 358.75-20.41L358.75-20.41Q360.19-23.46 362.84-25.18 365.49-26.9 369.1-26.9L369.1-26.9Q372.74-26.9 375.43-25.17L375.43-25.17Q378.06-23.44 379.5-20.41 380.94-17.38 380.94-13.45L380.94-13.45 380.94-12.92Q380.94-9.03 379.5-5.96L379.5-5.96Q378.06-2.93 375.43-1.21 372.79 0.51 369.15 0.51ZM369.15-3.25L369.15-3.25Q371.45-3.25 373.01-4.52L373.01-4.52Q374.55-5.76 375.34-7.95 376.13-10.13 376.13-12.92L376.13-12.92 376.13-13.45Q376.13-16.21 375.35-18.43L375.35-18.43Q374.55-20.61 372.98-21.86 371.42-23.12 369.1-23.12L369.1-23.12Q366.83-23.12 365.25-21.88L365.25-21.88Q363.68-20.61 362.9-18.42 362.12-16.24 362.12-13.45L362.12-13.45 362.12-12.92Q362.12-10.16 362.9-7.96L362.9-7.96Q363.68-5.76 365.26-4.5 366.83-3.25 369.15-3.25Z" opacity="1" transform="matrix(1,0,0,1,0,0)" fill="black" class="slogan-text-1" id="SvgjsPath1862"></path></svg></g></svg></g></svg></g></svg></g><g><svg viewBox="0 0 226.04004009420174 226.04004009420174" height="226.04004009420174" width="226.04004009420174"><g><svg></svg></g><g id="SvgjsG1861"><svg viewBox="0 0 226.04004009420174 226.04004009420174" height="226.04004009420174" width="226.04004009420174"><g><path d="M0 113.02c0-62.419 50.601-113.02 113.02-113.02 62.419 0 113.02 50.601 113.02 113.02 0 62.419-50.601 113.02-113.02 113.02-62.419 0-113.02-50.601-113.02-113.02zM113.02 219.205c58.644 0 106.185-47.541 106.185-106.185 0-58.644-47.541-106.185-106.185-106.185-58.644 0-106.185 47.541-106.185 106.185 0 58.644 47.541 106.185 106.185 106.185z" fill="black" stroke="transparent"></path><ellipse rx="111.88981984662986" ry="111.88981984662986" cx="113.02002004710087" cy="113.02002004710087" fill="black" stroke="transparent" stroke-width="0" fill-opacity="1"></ellipse></g><g transform="matrix(1,0,0,1,48.800770925036005,55.849785205974975)"><svg viewBox="0 0 128.43849824412973 114.3404696822518" height="114.3404696822518" width="128.43849824412973"><g><svg version="1.1" xmlns="http://www.w3.org/2000/svg" xmlns:xlink="http://www.w3.org/1999/xlink" x="0" y="0" viewBox="0 0 100 89.02351806147632" enable-background="new 0 0 100 89.14" xml:space="preserve" id="SvgjsSvg1860" width="128.43849824412973" height="114.3404696822518" class="icon-dxe-0" data-fill-palette-color="quaternary"><path fill="black" d="M43.198 52.033A22.4 22.4 0 0 1 56.926 52.078L56.863 19.608H68.627L50.98 0 31.373 19.608H43.138z"></path><path fill="black" d="M72.274 21.568L80.687 29.791 58.446 52.637A22.65 22.65 0 0 1 69.015 61.46L90.505 39.384 98.919 47.607 100 21.568z"></path><path fill="black" d="M41.553 52.637L19.312 29.791 27.726 21.568H0L1.082 47.606 9.496 39.383 30.986 61.46A22.64 22.64 0 0 1 41.553 52.637"></path><circle fill="black" cx="50" cy="73.529" r="16"></circle></svg></g></svg></g></svg></g></svg></g></svg></g><defs><mask></mask></defs><mask><g id="SvgjsG1859"><svg viewBox="0 0 395.52 136.00684723601535" height="136.00684723601535" width="395.52"><g><svg viewBox="0 0 657.3445269480828 226.04004009420174" height="136.00684723601535" width="395.52"><g transform="matrix(1,0,0,1,261.82452694808285,54.32846166601243)"><svg viewBox="0 0 395.52 117.38311676217688" height="117.38311676217688" width="395.52"><g id="SvgjsG1858"><svg viewBox="0 0 395.52 117.38311676217688" height="117.38311676217688" width="395.52" id="SvgjsSvg1857"><g><svg viewBox="0 0 395.52 75.79018378378379" height="75.79018378378379" width="395.52"><g transform="matrix(1,0,0,1,0,0)"><svg width="395.52" viewBox="3.95 -35.05 184.98000000000002 35.449999999999996" height="75.79018378378379" data-palette-color="url(#d5c9b54b-4bfb-4e13-8b66-7e435ea1a631)"><path d="M15.15-35.05Q19.15-35.05 21.63-32.38 24.1-29.7 24.1-25.3L24.1-25.3Q24.1-20.95 21.63-18.32 19.15-15.7 15.15-15.7L15.15-15.7 7.7-15.7Q7.5-15.7 7.5-15.5L7.5-15.5 7.5-0.5Q7.5 0 7 0L7 0 4.45 0Q3.95 0 3.95-0.5L3.95-0.5 3.95-34.55Q3.95-35.05 4.45-35.05L4.45-35.05 15.15-35.05ZM14.7-18.65Q17.35-18.65 18.95-20.45 20.55-22.25 20.55-25.25L20.55-25.25Q20.55-28.3 18.95-30.13 17.35-31.95 14.7-31.95L14.7-31.95 7.7-31.95Q7.5-31.95 7.5-31.75L7.5-31.75 7.5-18.85Q7.5-18.65 7.7-18.65L7.7-18.65 14.7-18.65ZM36.05 0.4Q31.6 0.4 28.92-2.2 26.25-4.8 26.25-9.05L26.25-9.05 26.25-13.05Q26.25-13.55 26.75-13.55L26.75-13.55 29.3-13.55Q29.8-13.55 29.8-13.05L29.8-13.05 29.8-9Q29.8-6.15 31.5-4.42 33.2-2.7 36.05-2.7L36.05-2.7Q38.85-2.7 40.6-4.45 42.35-6.2 42.35-9L42.35-9 42.35-34.5Q42.35-35 42.85-35L42.85-35 45.35-35Q45.85-35 45.85-34.5L45.85-34.5 45.85-9.05Q45.85-4.8 43.15-2.2 40.45 0.4 36.05 0.4L36.05 0.4ZM73.64-23Q73.64-22.5 73.14-22.5L73.14-22.5 68.39-22.5Q68.19-22.5 68.19-22.3L68.19-22.3 68.19-7.3Q68.19-4.95 69.12-4.03 70.04-3.1 72.09-3.1L72.09-3.1 72.94-3.1Q73.44-3.1 73.44-2.6L73.44-2.6 73.44-0.5Q73.44 0 72.94 0L72.94 0 71.39 0.05Q68.14 0.05 66.44-1.28 64.74-2.6 64.74-6.2L64.74-6.2 64.74-22.3Q64.74-22.5 64.54-22.5L64.54-22.5 62.04-22.5Q61.54-22.5 61.54-23L61.54-23 61.54-24.8Q61.54-25.3 62.04-25.3L62.04-25.3 64.54-25.3Q64.74-25.3 64.74-25.5L64.74-25.5 64.74-31.2Q64.74-31.7 65.24-31.7L65.24-31.7 67.69-31.7Q68.19-31.7 68.19-31.2L68.19-31.2 68.19-25.5Q68.19-25.3 68.39-25.3L68.39-25.3 73.14-25.3Q73.64-25.3 73.64-24.8L73.64-24.8 73.64-23ZM83.89 0Q83.44 0 83.34-0.45L83.34-0.45 77.19-24.75 77.14-24.95Q77.14-25.3 77.59-25.3L77.59-25.3 80.09-25.3Q80.54-25.3 80.64-24.85L80.64-24.85 85.14-5.65Q85.19-5.5 85.24-5.5 85.29-5.5 85.34-5.65L85.34-5.65 89.89-24.85Q89.99-25.3 90.44-25.3L90.44-25.3 92.74-25.3Q93.24-25.3 93.29-24.85L93.29-24.85 97.94-5.7Q97.99-5.55 98.04-5.55 98.09-5.55 98.14-5.7L98.14-5.7 102.69-24.85Q102.79-25.3 103.24-25.3L103.24-25.3 105.79-25.25Q106.04-25.25 106.17-25.1 106.29-24.95 106.19-24.7L106.19-24.7 99.94-0.45Q99.89 0 99.39 0L99.39 0 96.79 0Q96.34 0 96.24-0.45L96.24-0.45 91.69-18.95Q91.64-19.1 91.57-19.1 91.49-19.1 91.44-18.95L91.44-18.95 87.04-0.45Q86.94 0 86.49 0L86.49 0 83.89 0ZM119.09-2.7Q120.99-2.7 122.36-3.68 123.74-4.65 124.34-6.3L124.34-6.3Q124.49-6.75 124.94-6.65L124.94-6.65 127.24-6.2Q127.49-6.15 127.56-5.98 127.64-5.8 127.59-5.6L127.59-5.6Q126.74-2.8 124.49-1.2 122.24 0.4 119.04 0.4L119.04 0.4Q115.39 0.4 113.09-1.53 110.79-3.45 110.24-6.75L110.24-6.75Q110.04-8 109.99-9.7 109.94-11.4 109.94-12.53 109.94-13.65 109.94-14.1L109.94-14.1Q109.94-16.65 110.14-18.25L110.14-18.25Q110.54-21.6 112.91-23.65 115.29-25.7 118.89-25.7L118.89-25.7Q122.74-25.7 125.14-23.5 127.54-21.3 127.84-17.7L127.84-17.7Q127.99-16.05 127.99-11.65L127.99-11.65Q127.99-11.15 127.49-11.15L127.49-11.15 113.69-11.15Q113.49-11.15 113.49-10.95L113.49-10.95Q113.49-9.4 113.59-7.5L113.59-7.5Q113.84-5.35 115.31-4.03 116.79-2.7 119.09-2.7L119.09-2.7ZM118.94-22.6Q116.69-22.6 115.26-21.28 113.84-19.95 113.59-17.8L113.59-17.8Q113.49-15.7 113.49-14.3L113.49-14.3Q113.49-14.1 113.69-14.1L113.69-14.1 124.24-14.1Q124.44-14.1 124.44-14.3L124.44-14.3Q124.44-15.75 124.24-17.75L124.24-17.75Q123.99-19.9 122.56-21.25 121.14-22.6 118.94-22.6L118.94-22.6ZM142.59-2.7Q144.49-2.7 145.86-3.68 147.24-4.65 147.84-6.3L147.84-6.3Q147.99-6.75 148.44-6.65L148.44-6.65 150.74-6.2Q150.99-6.15 151.06-5.98 151.14-5.8 151.09-5.6L151.09-5.6Q150.24-2.8 147.99-1.2 145.74 0.4 142.54 0.4L142.54 0.4Q138.89 0.4 136.59-1.53 134.29-3.45 133.74-6.75L133.74-6.75Q133.54-8 133.49-9.7 133.44-11.4 133.44-12.53 133.44-13.65 133.44-14.1L133.44-14.1Q133.44-16.65 133.64-18.25L133.64-18.25Q134.04-21.6 136.41-23.65 138.79-25.7 142.39-25.7L142.39-25.7Q146.24-25.7 148.64-23.5 151.04-21.3 151.34-17.7L151.34-17.7Q151.49-16.05 151.49-11.65L151.49-11.65Q151.49-11.15 150.99-11.15L150.99-11.15 137.19-11.15Q136.99-11.15 136.99-10.95L136.99-10.95Q136.99-9.4 137.09-7.5L137.09-7.5Q137.34-5.35 138.81-4.03 140.29-2.7 142.59-2.7L142.59-2.7ZM142.44-22.6Q140.19-22.6 138.76-21.28 137.34-19.95 137.09-17.8L137.09-17.8Q136.99-15.7 136.99-14.3L136.99-14.3Q136.99-14.1 137.19-14.1L137.19-14.1 147.74-14.1Q147.94-14.1 147.94-14.3L147.94-14.3Q147.94-15.75 147.74-17.75L147.74-17.75Q147.49-19.9 146.06-21.25 144.64-22.6 142.44-22.6L142.44-22.6ZM167.43-23Q167.43-22.5 166.93-22.5L166.93-22.5 162.18-22.5Q161.98-22.5 161.98-22.3L161.98-22.3 161.98-7.3Q161.98-4.95 162.91-4.03 163.83-3.1 165.88-3.1L165.88-3.1 166.73-3.1Q167.23-3.1 167.23-2.6L167.23-2.6 167.23-0.5Q167.23 0 166.73 0L166.73 0 165.18 0.05Q161.93 0.05 160.23-1.28 158.53-2.6 158.53-6.2L158.53-6.2 158.53-22.3Q158.53-22.5 158.33-22.5L158.33-22.5 155.83-22.5Q155.33-22.5 155.33-23L155.33-23 155.33-24.8Q155.33-25.3 155.83-25.3L155.83-25.3 158.33-25.3Q158.53-25.3 158.53-25.5L158.53-25.5 158.53-31.2Q158.53-31.7 159.03-31.7L159.03-31.7 161.48-31.7Q161.98-31.7 161.98-31.2L161.98-31.2 161.98-25.5Q161.98-25.3 162.18-25.3L162.18-25.3 166.93-25.3Q167.43-25.3 167.43-24.8L167.43-24.8 167.43-23ZM180.48 0.25Q176.63 0.25 174.28-1.6 171.93-3.45 171.93-6.35L171.93-6.35 171.93-6.8Q171.93-7.3 172.43-7.3L172.43-7.3 174.88-7.3Q175.38-7.3 175.38-6.8L175.38-6.8 175.38-6.45Q175.38-4.85 176.81-3.68 178.23-2.5 180.48-2.5L180.48-2.5Q182.68-2.5 184.03-3.65 185.38-4.8 185.38-6.55L185.38-6.55Q185.38-7.8 184.63-8.65 183.88-9.5 182.78-10 181.68-10.5 179.73-11.15L179.73-11.15Q177.38-11.95 175.83-12.75 174.28-13.55 173.21-14.98 172.13-16.4 172.13-18.6L172.13-18.6Q172.13-21.8 174.38-23.68 176.63-25.55 180.33-25.55L180.33-25.55Q184.13-25.55 186.41-23.6 188.68-21.65 188.68-18.6L188.68-18.6 188.68-18.5Q188.68-18 188.18-18L188.18-18 185.88-18Q185.38-18 185.38-18.5L185.38-18.5 185.38-18.7Q185.38-20.4 184.01-21.53 182.63-22.65 180.33-22.65L180.33-22.65Q178.18-22.65 176.86-21.58 175.53-20.5 175.53-18.8L175.53-18.8Q175.53-17.05 176.86-16.15 178.18-15.25 181.03-14.25L181.03-14.25Q183.48-13.45 185.08-12.65 186.68-11.85 187.81-10.43 188.93-9 188.93-6.75L188.93-6.75Q188.93-3.55 186.63-1.65 184.33 0.25 180.48 0.25L180.48 0.25Z" opacity="1" transform="matrix(1,0,0,1,0,0)" fill="black" class="wordmark-text-0" id="SvgjsPath1856"></path></svg></g></svg></g><g transform="matrix(1,0,0,1,0,93.68242721072433)"><svg viewBox="0 0 232.209792 23.700689551452548" height="23.700689551452548" width="232.209792"><g transform="matrix(1,0,0,1,0,0)"><svg width="232.209792" viewBox="2.81 -38.09 378.13 38.6" height="23.700689551452548" data-palette-color="url(#d4022fa0-2ca5-4b2a-b880-a4344b2a9ecf)"><path d="M14.79 0.51L14.79 0.51Q11.55 0.51 8.54-0.44 5.54-1.39 2.81-3.37L2.81-3.37 2.81-10.96 6.54-10.96 7.35-5.37Q8.94-4.39 10.79-3.86 12.65-3.32 14.79-3.32L14.79-3.32Q17.26-3.32 18.95-4.08L18.95-4.08Q22.44-5.59 22.44-9.2L22.44-9.2Q22.44-10.82 21.66-12.08L21.66-12.08Q20.87-13.33 19.08-14.27 17.29-15.21 14.18-15.92L14.18-15.92Q10.62-16.75 8.01-18.21L8.01-18.21Q2.86-21.12 2.86-26.34L2.86-26.34Q2.86-29.15 4.35-31.32L4.35-31.32Q5.81-33.52 8.45-34.79 11.08-36.06 14.6-36.06L14.6-36.06Q18.33-36.06 21.2-34.92 24.07-33.79 25.93-32.18L25.93-32.18 25.93-25.07 22.19-25.07 21.39-30.15Q20.29-31.03 18.65-31.62 17.02-32.2 14.6-32.2L14.6-32.2Q12.6-32.2 10.99-31.49L10.99-31.49Q9.42-30.76 8.54-29.47 7.67-28.17 7.67-26.42L7.67-26.42Q7.67-24.88 8.47-23.73L8.47-23.73Q9.94-21.56 15.84-20.09L15.84-20.09Q27.25-17.26 27.25-9.25L27.25-9.25Q27.25-6.4 25.71-4.2L25.71-4.2Q24.17-1.98 21.37-0.73 18.58 0.51 14.79 0.51ZM39.43-19.51L39.43-19.51 39.43-3.76 43.41-3.08 43.41 0 30.64 0 30.64-3.08 34.62-3.76 34.62-34.3 30.64-34.99 30.64-38.09 39.43-38.09 39.43-22.9Q40.79-24.8 42.77-25.85 44.75-26.9 47.17-26.9L47.17-26.9Q51.41-26.9 53.76-24.37 56.1-21.83 56.1-16.55L56.1-16.55 56.1-3.76 60.08-3.08 60.08 0 47.31 0 47.31-3.08 51.29-3.76 51.29-16.6Q51.29-23 45.7-23L45.7-23Q43.72-23 42.1-22.06 40.48-21.12 39.43-19.51ZM71.89 0.51L71.89 0.51Q67.77 0.51 65.62-1.5 63.47-3.52 63.47-7.18L63.47-7.18Q63.47-9.72 64.86-11.57L64.86-11.57Q66.23-13.45 68.84-14.48 71.45-15.5 75.09-15.5L75.09-15.5 79.8-15.5 79.8-18.09Q79.8-20.48 78.35-21.8 76.9-23.12 74.26-23.12L74.26-23.12Q72.6-23.12 71.38-22.72 70.16-22.31 69.16-21.61L69.16-21.61 68.65-17.92 64.94-17.92 64.94-23.97Q68.53-26.9 74.34-26.9L74.34-26.9Q79.15-26.9 81.88-24.61 84.61-22.31 84.61-18.04L84.61-18.04 84.61-5.32Q84.61-4.81 84.63-4.32 84.64-3.83 84.69-3.34L84.69-3.34 87.25-3.08 87.25 0 80.34 0Q79.93-2 79.83-3.64L79.83-3.64Q78.44-1.86 76.35-0.67 74.26 0.51 71.89 0.51ZM72.6-3.52L72.6-3.52Q75-3.52 76.97-4.66 78.95-5.81 79.8-7.42L79.8-7.42 79.8-12.21 74.92-12.21Q71.6-12.21 69.94-10.62 68.28-9.03 68.28-7.08L68.28-7.08Q68.28-3.52 72.6-3.52ZM99.72-18.73L99.72-18.73 99.72-3.76 103.7-3.08 103.7 0 90.93 0 90.93-3.08 94.91-3.76 94.91-22.63 90.93-23.32 90.93-26.42 99.21-26.42 99.63-23.05 99.68-22.58Q100.8-24.61 102.45-25.76 104.09-26.9 106.22-26.9L106.22-26.9Q106.97-26.9 107.77-26.77 108.56-26.64 108.9-26.51L108.9-26.51 108.27-22.05 104.92-22.24Q103.02-22.36 101.73-21.37 100.43-20.39 99.72-18.73ZM123.87 0.51L123.87 0.51Q120.2 0.51 117.49-1.17L117.49-1.17Q114.78-2.83 113.31-5.81 111.83-8.79 111.83-12.7L111.83-12.7 111.83-13.77Q111.83-17.55 113.39-20.51L113.39-20.51Q114.93-23.49 117.51-25.2 120.08-26.9 123.13-26.9L123.13-26.9Q126.7-26.9 129.12-25.44L129.12-25.44Q131.51-23.97 132.73-21.33 133.95-18.68 133.95-15.09L133.95-15.09 133.95-12.08 116.81-12.08 116.74-11.96Q116.76-9.47 117.64-7.47L117.64-7.47Q118.5-5.49 120.07-4.37 121.65-3.25 123.87-3.25L123.87-3.25Q126.31-3.25 128.15-3.94 129.99-4.64 131.34-5.86L131.34-5.86 133.22-2.73Q131.8-1.37 129.47-0.43 127.14 0.51 123.87 0.51ZM116.91-15.97L116.91-15.97 116.96-15.84 129.14-15.84 129.14-16.48Q129.14-18.41 128.48-19.9L128.48-19.9Q127.8-21.41 126.47-22.27 125.14-23.12 123.13-23.12L123.13-23.12Q121.55-23.12 120.2-22.19L120.2-22.19Q117.47-20.21 116.91-15.97ZM154.53-3.08L158.51-3.76 158.51-34.3 154.53-34.99 154.53-38.09 163.32-38.09 163.32-3.76 167.29-3.08 167.29 0 154.53 0 154.53-3.08ZM179.33-32.93L174.27-32.93 174.27-38.09 179.33-38.09 179.33-32.93ZM170.54-3.08L174.52-3.76 174.52-22.63 170.54-23.32 170.54-26.42 179.33-26.42 179.33-3.76 183.31-3.08 183.31 0 170.54 0 170.54-3.08ZM204.52-22.85L204.64-23 201.81-23.32 201.81-26.42 213.19-26.42 213.19-23.32 209.79-22.68 202.37-15.21 211.48-3.66 215.29-3.08 215.29 0 203.35 0 203.35-3.08 206.03-3.39 205.96-3.49 199.27-12.11 195.17-7.98 195.17-3.76 199.15-3.08 199.15 0 186.38 0 186.38-3.08 190.36-3.76 190.36-34.3 186.38-34.99 186.38-38.09 195.17-38.09 195.17-13.55 204.52-22.85ZM229.08 0.51L229.08 0.51Q225.42 0.51 222.71-1.17L222.71-1.17Q220-2.83 218.52-5.81 217.04-8.79 217.04-12.7L217.04-12.7 217.04-13.77Q217.04-17.55 218.61-20.51L218.61-20.51Q220.14-23.49 222.72-25.2 225.29-26.9 228.35-26.9L228.35-26.9Q231.91-26.9 234.33-25.44L234.33-25.44Q236.72-23.97 237.94-21.33 239.16-18.68 239.16-15.09L239.16-15.09 239.16-12.08 222.02-12.08 221.95-11.96Q221.97-9.47 222.85-7.47L222.85-7.47Q223.71-5.49 225.28-4.37 226.86-3.25 229.08-3.25L229.08-3.25Q231.52-3.25 233.36-3.94 235.21-4.64 236.55-5.86L236.55-5.86 238.43-2.73Q237.01-1.37 234.68-0.43 232.35 0.51 229.08 0.51ZM222.12-15.97L222.12-15.97 222.17-15.84 234.35-15.84 234.35-16.48Q234.35-18.41 233.69-19.9L233.69-19.9Q233.01-21.41 231.68-22.27 230.35-23.12 228.35-23.12L228.35-23.12Q226.76-23.12 225.42-22.19L225.42-22.19Q222.68-20.21 222.12-15.97ZM268.53 0.51L268.53 0.51Q264.4 0.51 262.25-1.5 260.1-3.52 260.1-7.18L260.1-7.18Q260.1-9.72 261.5-11.57L261.5-11.57Q262.86-13.45 265.48-14.48 268.09-15.5 271.73-15.5L271.73-15.5 276.44-15.5 276.44-18.09Q276.44-20.48 274.98-21.8 273.53-23.12 270.9-23.12L270.9-23.12Q269.24-23.12 268.01-22.72 266.79-22.31 265.79-21.61L265.79-21.61 265.28-17.92 261.57-17.92 261.57-23.97Q265.16-26.9 270.97-26.9L270.97-26.9Q275.78-26.9 278.51-24.61 281.25-22.31 281.25-18.04L281.25-18.04 281.25-5.32Q281.25-4.81 281.26-4.32 281.27-3.83 281.32-3.34L281.32-3.34 283.88-3.08 283.88 0 276.97 0Q276.56-2 276.46-3.64L276.46-3.64Q275.07-1.86 272.98-0.67 270.9 0.51 268.53 0.51ZM269.24-3.52L269.24-3.52Q271.63-3.52 273.61-4.66 275.58-5.81 276.44-7.42L276.44-7.42 276.44-12.21 271.55-12.21Q268.23-12.21 266.57-10.62 264.91-9.03 264.91-7.08L264.91-7.08Q264.91-3.52 269.24-3.52ZM321.21-14.26L321.21-14.26 313.66-14.26 313.66-3.76 317.64-3.08 317.64 0 304.87 0 304.87-3.08 308.85-3.76 308.85-31.76 304.87-32.45 304.87-35.55 321.21-35.55Q325.04-35.55 327.7-34.23L327.7-34.23Q333.22-31.49 333.22-24.9L333.22-24.9Q333.22-21.66 331.8-19.29L331.8-19.29Q330.39-16.89 327.7-15.58 325.02-14.26 321.21-14.26ZM321.21-31.76L321.21-31.76 313.66-31.76 313.66-18.02 321.21-18.02Q324.82-18.02 326.62-19.96 328.41-21.9 328.41-24.85L328.41-24.85Q328.41-27.81 326.62-29.79 324.82-31.76 321.21-31.76ZM345.11-18.73L345.11-18.73 345.11-3.76 349.09-3.08 349.09 0 336.32 0 336.32-3.08 340.3-3.76 340.3-22.63 336.32-23.32 336.32-26.42 344.59-26.42 345.01-23.05 345.06-22.58Q346.18-24.61 347.83-25.76 349.48-26.9 351.6-26.9L351.6-26.9Q352.36-26.9 353.15-26.77 353.94-26.64 354.29-26.51L354.29-26.51 353.65-22.05 350.31-22.24Q348.4-22.36 347.11-21.37 345.81-20.39 345.11-18.73ZM369.15 0.51L369.15 0.51Q365.51 0.51 362.85-1.22L362.85-1.22Q360.19-2.95 358.75-5.98 357.31-9.01 357.31-12.92L357.31-12.92 357.31-13.45Q357.31-17.33 358.75-20.41L358.75-20.41Q360.19-23.46 362.84-25.18 365.49-26.9 369.1-26.9L369.1-26.9Q372.74-26.9 375.43-25.17L375.43-25.17Q378.06-23.44 379.5-20.41 380.94-17.38 380.94-13.45L380.94-13.45 380.94-12.92Q380.94-9.03 379.5-5.96L379.5-5.96Q378.06-2.93 375.43-1.21 372.79 0.51 369.15 0.51ZM369.15-3.25L369.15-3.25Q371.45-3.25 373.01-4.52L373.01-4.52Q374.55-5.76 375.34-7.95 376.13-10.13 376.13-12.92L376.13-12.92 376.13-13.45Q376.13-16.21 375.35-18.43L375.35-18.43Q374.55-20.61 372.98-21.86 371.42-23.12 369.1-23.12L369.1-23.12Q366.83-23.12 365.25-21.88L365.25-21.88Q363.68-20.61 362.9-18.42 362.12-16.24 362.12-13.45L362.12-13.45 362.12-12.92Q362.12-10.16 362.9-7.96L362.9-7.96Q363.68-5.76 365.26-4.5 366.83-3.25 369.15-3.25Z" opacity="1" transform="matrix(1,0,0,1,0,0)" fill="black" class="slogan-text-1" id="SvgjsPath1855"></path></svg></g></svg></g></svg></g></svg></g><g><svg viewBox="0 0 226.04004009420174 226.04004009420174" height="226.04004009420174" width="226.04004009420174"><g><svg></svg></g><g id="SvgjsG1854"><svg viewBox="0 0 226.04004009420174 226.04004009420174" height="226.04004009420174" width="226.04004009420174"><g><path d="M0 113.02c0-62.419 50.601-113.02 113.02-113.02 62.419 0 113.02 50.601 113.02 113.02 0 62.419-50.601 113.02-113.02 113.02-62.419 0-113.02-50.601-113.02-113.02zM113.02 219.205c58.644 0 106.185-47.541 106.185-106.185 0-58.644-47.541-106.185-106.185-106.185-58.644 0-106.185 47.541-106.185 106.185 0 58.644 47.541 106.185 106.185 106.185z" fill="black" stroke="transparent"></path><ellipse rx="111.88981984662986" ry="111.88981984662986" cx="113.02002004710087" cy="113.02002004710087" fill="black" stroke="transparent" stroke-width="0" fill-opacity="1"></ellipse></g><g transform="matrix(1,0,0,1,48.800770925036005,55.849785205974975)"><svg viewBox="0 0 128.43849824412973 114.3404696822518" height="114.3404696822518" width="128.43849824412973"><g><svg version="1.1" xmlns="http://www.w3.org/2000/svg" xmlns:xlink="http://www.w3.org/1999/xlink" x="0" y="0" viewBox="0 0 100 89.02351806147632" enable-background="new 0 0 100 89.14" xml:space="preserve" id="SvgjsSvg1853" width="128.43849824412973" height="114.3404696822518" class="icon-dxe-0" data-fill-palette-color="quaternary"><path fill="black" d="M43.198 52.033A22.4 22.4 0 0 1 56.926 52.078L56.863 19.608H68.627L50.98 0 31.373 19.608H43.138z"></path><path fill="black" d="M72.274 21.568L80.687 29.791 58.446 52.637A22.65 22.65 0 0 1 69.015 61.46L90.505 39.384 98.919 47.607 100 21.568z"></path><path fill="black" d="M41.553 52.637L19.312 29.791 27.726 21.568H0L1.082 47.606 9.496 39.383 30.986 61.46A22.64 22.64 0 0 1 41.553 52.637"></path><circle fill="black" cx="50" cy="73.529" r="16"></circle></svg></g></svg></g></svg></g></svg></g></svg></g><defs><mask></mask></defs></svg><rect width="395.52" height="136.00684723601535" fill="black" stroke="none" visibility="hidden"></rect></g></mask></svg><rect width="395.52" height="136.00684723601535" fill="black" stroke="none" visibility="hidden"></rect></g></mask></svg><rect width="395.52" height="136.00684723601535" fill="black" stroke="none" visibility="hidden"></rect></g></mask><linearGradient x1="0.054" x2="0.941" y1="0.5" y2="0.5" id="97521295-9784-4b6a-8a8a-8991ecc40266"><stop stop-color="#0f3054" offset="0"></stop><stop stop-color="#3b8dcb" offset="0.498"></stop><stop stop-color="#0f3054" offset="1"></stop></linearGradient><rect width="395.52" height="136.00684723601535" fill="url(#97521295-9784-4b6a-8a8a-8991ecc40266)" mask="url(#b67525fe-0b77-49ba-a45d-b5b8911fcdc5)" data-fill-palette-color="accent"></rect></svg><rect width="395.52" height="136.00684723601535" fill="none" stroke="none" visibility="hidden"></rect></g></svg></g></svg>